<?xml version="1.0" encoding="UTF-8"?>
<svg version="1.1" xmlns="http://www.w3.org/2000/svg" width="650" height="110">
<path d="M0 0 C214.5 0 429 0 650 0 C650 36.3 650 72.6 650 110 C435.5 110 221 110 0 110 C0 73.7 0 37.4 0 0 Z " fill="#FDFDFE" transform="translate(0,0)"/>
<path d="M0 0 C1.65068481 -0.01268921 1.65068481 -0.01268921 3.3347168 -0.02563477 C5.13103294 -0.01652573 5.13103294 -0.01652573 6.96363831 -0.00723267 C8.23244843 -0.01248962 9.50125854 -0.01774658 10.80851746 -0.02316284 C14.28174173 -0.03681875 17.75469812 -0.03154472 21.22792697 -0.02202559 C24.86730074 -0.01441833 28.50665192 -0.02147771 32.14602661 -0.02618408 C38.25828661 -0.03163924 44.3704378 -0.0244571 50.48268127 -0.01016235 C57.54175369 0.00615647 64.60056605 0.0008804 71.65963215 -0.01564157 C77.7268904 -0.02927205 83.79407053 -0.03116827 89.86133915 -0.02332556 C93.48214131 -0.01865666 97.1028214 -0.01800238 100.72361565 -0.02793503 C104.76211219 -0.03823991 108.80016322 -0.02394188 112.83863831 -0.00723267 C114.03415817 -0.01330536 115.22967804 -0.01937805 116.46142578 -0.02563477 C127.04422444 0.05550981 127.04422444 0.05550981 131.46583557 3.38095093 C135.39656889 7.8784259 136.047098 11.70727783 135.9834137 17.49423218 C135.99042297 18.28526337 135.99743225 19.07629456 136.00465393 19.89129639 C136.02218343 22.49237725 136.01062967 25.09236002 135.99708557 27.69345093 C135.99978195 29.50896411 136.00366558 31.32447588 136.00868225 33.13998413 C136.01457045 36.93952219 136.00603632 40.73868335 135.98731995 44.53817749 C135.9645307 49.4006297 135.97765744 54.2621987 136.0016098 59.12461853 C136.01608619 62.87194433 136.01145337 66.61906185 136.00109863 70.36639404 C135.99843643 72.15889593 136.00168325 73.95141692 136.01101685 75.74389648 C136.02121301 78.25232805 136.00563982 80.75934321 135.9834137 83.26766968 C135.99151062 84.00343231 135.99960754 84.73919495 136.00794983 85.49725342 C135.92461847 90.59155234 134.75652327 93.51260034 131.46583557 97.38095093 C127.83215903 99.98363296 125.34107529 100.75738591 120.89370728 100.76863098 C119.78483658 100.77853561 118.67596588 100.78844025 117.53349304 100.79864502 C116.32659821 100.79414337 115.11970337 100.78964172 113.87623596 100.78500366 C112.59767227 100.79186691 111.31910858 100.79873016 110.00180054 100.80580139 C106.50173247 100.82372342 103.00191523 100.82256628 99.50181508 100.81685901 C96.57688009 100.81376565 93.65199317 100.81986125 90.72706503 100.82589775 C83.82525049 100.8399383 76.92355974 100.83838574 70.02174377 100.82699585 C62.90808633 100.81551558 55.79480594 100.82958954 48.68119818 100.85639232 C42.5672268 100.87856378 36.45337366 100.88518346 30.33936495 100.87931591 C26.69056858 100.87594848 23.04201388 100.87834685 19.39325142 100.89556694 C15.3235354 100.91393593 11.25455091 100.8998343 7.18482971 100.88265991 C5.97995911 100.89232788 4.7750885 100.90199585 3.53370667 100.91195679 C-7.00374247 100.81874135 -7.00374247 100.81874135 -11.53416443 96.38095093 C-14.59595855 91.83123473 -14.97133739 87.70393807 -14.93821716 82.35946655 C-14.94508041 81.57818893 -14.95194366 80.79691132 -14.95901489 79.99195862 C-14.97723447 77.42351834 -14.97345291 74.85569162 -14.96775818 72.28720093 C-14.97232188 70.4941081 -14.97762802 68.70101702 -14.98364258 66.90792847 C-14.99256383 63.1555367 -14.9901613 59.40335788 -14.98020935 55.65097046 C-14.96871306 50.84908056 -14.98894609 46.04792531 -15.01812649 41.2461319 C-15.03649529 37.54514928 -15.03619482 33.84434258 -15.03048897 30.14332581 C-15.03033588 28.37314319 -15.03637002 26.60294856 -15.04878044 24.83280945 C-15.06370419 22.35555232 -15.05300478 19.87965079 -15.03587341 17.4024353 C-15.04554138 16.67602341 -15.05520935 15.94961151 -15.06517029 15.20118713 C-14.9919512 10.12994956 -13.80469794 7.23216346 -10.53416443 3.38095093 C-6.91160394 0.78775268 -4.43342738 0.00525834 0 0 Z " fill="#FCFBFB" transform="translate(24.534164428710938,4.619049072265625)"/>
<path d="M0 0 C1.65068481 -0.01268921 1.65068481 -0.01268921 3.3347168 -0.02563477 C5.13103294 -0.01652573 5.13103294 -0.01652573 6.96363831 -0.00723267 C8.23244843 -0.01248962 9.50125854 -0.01774658 10.80851746 -0.02316284 C14.28174173 -0.03681875 17.75469812 -0.03154472 21.22792697 -0.02202559 C24.86730074 -0.01441833 28.50665192 -0.02147771 32.14602661 -0.02618408 C38.25828661 -0.03163924 44.3704378 -0.0244571 50.48268127 -0.01016235 C57.54175369 0.00615647 64.60056605 0.0008804 71.65963215 -0.01564157 C77.7268904 -0.02927205 83.79407053 -0.03116827 89.86133915 -0.02332556 C93.48214131 -0.01865666 97.1028214 -0.01800238 100.72361565 -0.02793503 C104.76211219 -0.03823991 108.80016322 -0.02394188 112.83863831 -0.00723267 C114.03415817 -0.01330536 115.22967804 -0.01937805 116.46142578 -0.02563477 C127.04422444 0.05550981 127.04422444 0.05550981 131.46583557 3.38095093 C135.39656889 7.8784259 136.047098 11.70727783 135.9834137 17.49423218 C135.99042297 18.28526337 135.99743225 19.07629456 136.00465393 19.89129639 C136.02218343 22.49237725 136.01062967 25.09236002 135.99708557 27.69345093 C135.99978195 29.50896411 136.00366558 31.32447588 136.00868225 33.13998413 C136.01457045 36.93952219 136.00603632 40.73868335 135.98731995 44.53817749 C135.9645307 49.4006297 135.97765744 54.2621987 136.0016098 59.12461853 C136.01608619 62.87194433 136.01145337 66.61906185 136.00109863 70.36639404 C135.99843643 72.15889593 136.00168325 73.95141692 136.01101685 75.74389648 C136.02121301 78.25232805 136.00563982 80.75934321 135.9834137 83.26766968 C135.99151062 84.00343231 135.99960754 84.73919495 136.00794983 85.49725342 C135.92461488 90.59177212 134.81442298 93.54955693 131.46583557 97.38095093 C125.93877234 101.53388791 119.46663761 100.80993395 112.85450745 100.78500366 C110.95107323 100.79529854 110.95107323 100.79529854 109.00918579 100.80580139 C105.54016689 100.82369949 102.07140139 100.82257104 98.60235023 100.81685901 C95.70221823 100.81376279 92.8021346 100.81986428 89.90200949 100.82589775 C83.05914864 100.83992986 76.21641268 100.83839221 69.37355042 100.82699585 C62.321787 100.81551088 55.27040373 100.82959935 48.2186904 100.85639232 C42.15565363 100.87856349 36.09273607 100.88518369 30.02966166 100.87931591 C26.41217852 100.87594908 22.79493915 100.8783431 19.17749023 100.89556694 C15.14380378 100.9139358 11.11085537 100.89983464 7.0771637 100.88265991 C5.88321487 100.89232788 4.68926605 100.90199585 3.45913696 100.91195679 C-6.99105722 100.81868602 -6.99105722 100.81868602 -11.53416443 96.38095093 C-14.59595855 91.83123473 -14.97133739 87.70393807 -14.93821716 82.35946655 C-14.94508041 81.57818893 -14.95194366 80.79691132 -14.95901489 79.99195862 C-14.97723447 77.42351834 -14.97345291 74.85569162 -14.96775818 72.28720093 C-14.97232188 70.4941081 -14.97762802 68.70101702 -14.98364258 66.90792847 C-14.99256383 63.1555367 -14.9901613 59.40335788 -14.98020935 55.65097046 C-14.96871306 50.84908056 -14.98894609 46.04792531 -15.01812649 41.2461319 C-15.03649529 37.54514928 -15.03619482 33.84434258 -15.03048897 30.14332581 C-15.03033588 28.37314319 -15.03637002 26.60294856 -15.04878044 24.83280945 C-15.06370419 22.35555232 -15.05300478 19.87965079 -15.03587341 17.4024353 C-15.04554138 16.67602341 -15.05520935 15.94961151 -15.06517029 15.20118713 C-14.9919512 10.12994956 -13.80469794 7.23216346 -10.53416443 3.38095093 C-6.91160394 0.78775268 -4.43342738 0.00525834 0 0 Z " fill="#FDFDFD" transform="translate(344.53416442871094,4.619049072265625)"/>
<path d="M0 0 C1.1047467 -0.00860046 2.20949341 -0.01720093 3.34771729 -0.02606201 C4.56539795 -0.03032196 5.78307861 -0.03458191 7.03765869 -0.03897095 C8.95484711 -0.05123718 8.95484711 -0.05123718 10.9107666 -0.06375122 C15.15649302 -0.08997677 19.40222931 -0.10528062 23.64801025 -0.11953735 C25.1096014 -0.12489705 26.57119249 -0.13027456 28.03278351 -0.13566971 C34.11318482 -0.15730034 40.19358347 -0.17603651 46.27401352 -0.1872921 C54.98728945 -0.20352739 63.70011914 -0.23669222 72.41322684 -0.29369295 C78.53984958 -0.33240568 84.66635304 -0.3519264 90.79309487 -0.35721266 C94.45210723 -0.36086474 98.11064373 -0.37286925 101.76952362 -0.4053154 C105.85396303 -0.4410155 109.937445 -0.43702189 114.02203369 -0.42959595 C115.23161743 -0.44600128 116.44120117 -0.46240662 117.68743896 -0.47930908 C126.82597952 -0.41119348 126.82597952 -0.41119348 130.52404785 2.56536865 C134.07808773 6.62780588 133.94678582 9.52772697 133.96563721 14.72128296 C133.9722084 15.50197647 133.9787796 16.28266998 133.98554993 17.08702087 C134.00529973 19.67702323 134.01695008 22.26696753 134.0269165 24.85702515 C134.03099203 25.74133965 134.03506756 26.62565414 134.03926659 27.53676605 C134.06013588 32.21854927 134.07443308 36.90030311 134.08380127 41.5821228 C134.09485919 46.41544674 134.12924935 51.24830947 134.16897297 56.08147049 C134.19513607 59.79957935 134.20349289 63.51757836 134.20708275 67.23577118 C134.2119506 69.01713928 134.22357029 70.79850242 134.24212074 72.57978058 C134.26650303 75.07653661 134.26554902 77.57210025 134.25860596 80.06893921 C134.27782104 81.16798332 134.27782104 81.16798332 134.29742432 82.28923035 C134.24606363 87.36999009 133.06347787 90.29054402 129.78863525 94.15390015 C126.62401083 96.16737447 124.1276496 96.40818 120.41268921 96.42132568 C119.32202148 96.42985565 118.23135376 96.43838562 117.1076355 96.44717407 C115.91584686 96.4462677 114.72405823 96.44536133 113.49615479 96.44442749 C111.607789 96.45450333 111.607789 96.45450333 109.68127441 96.46478271 C106.23078577 96.48243913 102.78039634 96.48713794 99.32986689 96.48841429 C97.17293296 96.48983667 95.0160242 96.4941079 92.85909653 96.49940872 C85.33087311 96.5179079 77.80272049 96.52607949 70.2744751 96.52450562 C63.26253085 96.52330428 56.25089445 96.54440513 49.2390281 96.57599294 C43.21426038 96.60216454 37.18959316 96.61287255 31.16476905 96.6115948 C27.56847742 96.61108541 23.97245941 96.61675518 20.37622452 96.6379509 C16.36390467 96.66095368 12.35227241 96.65180712 8.33990479 96.63973999 C6.55829453 96.65659851 6.55829453 96.65659851 4.74069214 96.67379761 C-1.49357183 96.62609283 -5.58325816 96.54292259 -10.21136475 92.15390015 C-12.89481182 88.66493877 -12.51393162 84.58622091 -12.51776123 80.35946655 C-12.52608475 79.57848099 -12.53440826 78.79749542 -12.54298401 77.99284363 C-12.56705935 75.41366577 -12.57585288 72.83474092 -12.5824585 70.25546265 C-12.59142645 68.45951258 -12.60054833 66.66356328 -12.6098175 64.86761475 C-12.62630316 61.10332423 -12.63400689 57.33912262 -12.63690186 53.57479858 C-12.64228638 48.75707592 -12.67997075 43.94019143 -12.72564602 39.12270546 C-12.75542371 35.4131568 -12.76262556 31.70380985 -12.76362801 27.99415207 C-12.76782862 26.21835871 -12.78025662 24.44256466 -12.80114555 22.66688919 C-12.82807682 20.17967749 -12.82323066 17.69440705 -12.81072998 15.2071228 C-12.82556427 14.47756882 -12.84039856 13.74801483 -12.85568237 12.99635315 C-12.77448822 7.30811426 -11.1015816 5.00147022 -7.21136475 1.15390015 C-4.66110147 -0.12123149 -2.85628595 0.01651428 0 0 Z " fill="#1F72CD" transform="translate(506.21136474609375,6.846099853515625)"/>
<path d="M0 0 C2.98369282 -0.3759453 5.15565376 -1.6148548 7.75 -3.0625 C15.44366986 -6.55267474 25.89995294 -6.23399887 33.9375 -3.875 C42.94272077 -0.1801098 49.64577677 5.31696432 54.03125 14.0546875 C57.32482338 22.38010909 57.3875957 32.5392923 54.09765625 40.87890625 C49.36233391 50.029369 42.24548449 56.14168237 32.6875 59.875 C22.03571905 62.94478409 13.74433637 60.65105257 4 56 C1.18513188 54.70524925 1.18513188 54.70524925 -0.796875 55.70703125 C-1.44140625 56.07183594 -2.0859375 56.43664062 -2.75 56.8125 C-10.95679839 61.10917524 -19.65420775 62.66757325 -28.75 60.27734375 C-39.54670741 56.21212008 -45.54588259 50.07407149 -51.10546875 39.99609375 C-54.27290112 32.87308855 -54.00781798 24.48151684 -51.75 17.125 C-48.19289486 7.96874788 -41.76495178 0.8817493 -32.89453125 -3.2734375 C-22.57631805 -7.23052545 -9.2189349 -6.1459566 0 0 Z " fill="#F69E1F" transform="translate(81,21)"/>
<path d="M0 0 C10.66666667 0 21.33333333 0 32 0 C33.32 2.31 34.64 4.62 36 7 C36.99 4.69 37.98 2.38 39 0 C44.78406969 -0.07410115 50.56786371 -0.12857885 56.35229492 -0.16479492 C58.32044283 -0.17989082 60.28855706 -0.20036948 62.2565918 -0.22631836 C65.08390612 -0.26266649 67.9107761 -0.27971814 70.73828125 -0.29296875 C71.61962234 -0.30845261 72.50096344 -0.32393646 73.40901184 -0.33988953 C74.22963608 -0.34011612 75.05026031 -0.34034271 75.89575195 -0.34057617 C76.61745071 -0.34723801 77.33914948 -0.35389984 78.0827179 -0.36076355 C80.53769977 0.10117576 81.29600904 1.23917361 83 3 C83.99 3 84.98 3 86 3 C86.66 2.01 87.32 1.02 88 0 C89.97119141 -0.34057617 89.97119141 -0.34057617 92.3515625 -0.29296875 C93.62773438 -0.2784668 93.62773438 -0.2784668 94.9296875 -0.26367188 C95.81914063 -0.23853516 96.70859375 -0.21339844 97.625 -0.1875 C98.97078125 -0.16719727 98.97078125 -0.16719727 100.34375 -0.14648438 C102.56309789 -0.11106925 104.78125188 -0.06168461 107 0 C105.00274282 4.24196214 102.26837246 6.80623769 98.875 10 C97.06762142 11.92787048 96.03425316 13.58674262 95 16 C95.44730469 16.49628906 95.89460937 16.99257813 96.35546875 17.50390625 C96.96003906 18.18324219 97.56460938 18.86257812 98.1875 19.5625 C98.77917969 20.22378906 99.37085938 20.88507812 99.98046875 21.56640625 C102.49822969 24.60038123 104.73514321 27.77287244 107 31 C103.89601022 31.08710289 100.79233452 31.14042309 97.6875 31.1875 C96.80642578 31.21263672 95.92535156 31.23777344 95.01757812 31.26367188 C94.17001953 31.27333984 93.32246094 31.28300781 92.44921875 31.29296875 C91.66893311 31.3086792 90.88864746 31.32438965 90.0847168 31.34057617 C87.48526799 30.91590922 86.74586871 29.89437295 85 28 C82.86196946 28.07606836 82.86196946 28.07606836 81 29 C80.67 29.66 80.34 30.32 80 31 C57 31 34 31 11 31 C10.505 28.525 10.505 28.525 10 26 C8.02 26 6.04 26 4 26 C3.67 27.65 3.34 29.3 3 31 C-2.28 31 -7.56 31 -13 31 C-12.13873234 26.69366172 -11.10983972 23.7399733 -9.27734375 19.82421875 C-8.47006836 18.08881836 -8.47006836 18.08881836 -7.64648438 16.31835938 C-7.07694064 15.10801751 -6.50727769 13.89773174 -5.9375 12.6875 C-5.36343439 11.45791463 -4.7898615 10.22809909 -4.21679688 8.99804688 C-2.81602767 5.99639857 -1.41027491 2.99719095 0 0 Z " fill="#E9F1FA" transform="translate(518,40)"/>
<path d="M0 0 C1.36141859 0.96141416 2.70343137 1.95277149 4 3 C2.85350865 5.70988866 1.62596302 7.41340929 -0.375 9.625 C-6.0519088 16.38001611 -7.74655078 23.99310133 -7.44921875 32.6875 C-6.22085166 41.74537208 -2.12608533 48.44651336 4 55 C4 55.66 4 56.32 4 57 C-5.49497234 62.08042676 -14.95953937 65.11290514 -25.75 62.27734375 C-36.54670741 58.21212008 -42.54588259 52.07407149 -48.10546875 41.99609375 C-51.27290112 34.87308855 -51.00781798 26.48151684 -48.75 19.125 C-45.19289486 9.96874788 -38.76495178 2.8817493 -29.89453125 -1.2734375 C-20.6244048 -4.82857878 -8.99155205 -4.09166132 0 0 Z " fill="#EA1D24" transform="translate(78,19)"/>
<path d="M0 0 C3.35546875 -0.48828125 3.35546875 -0.48828125 7.1875 -0.3125 C8.45980469 -0.26738281 9.73210937 -0.22226562 11.04296875 -0.17578125 C12.01878906 -0.11777344 12.99460937 -0.05976563 14 0 C14.67184995 2.89496321 15.34005372 5.79068898 16.00390625 8.6875 C16.74645061 11.92038823 17.50973425 15.14797646 18.27734375 18.375 C18.72675082 20.29162252 19.175969 22.20828934 19.625 24.125 C19.95213989 25.48262451 19.95213989 25.48262451 20.28588867 26.86767578 C21.76901604 33.24863962 22.52336532 39.46480891 23 46 C19.37 46 15.74 46 12 46 C11.67 43.69 11.34 41.38 11 39 C5.72 39 0.44 39 -5 39 C-5.66 41.31 -6.32 43.62 -7 46 C-10.96 46 -14.92 46 -19 46 C-18.32815938 42.64079692 -17.81862976 40.23889456 -16.55712891 37.20703125 C-16.1212999 36.15068481 -16.1212999 36.15068481 -15.67666626 35.07299805 C-15.36313202 34.32703369 -15.04959778 33.58106934 -14.7265625 32.8125 C-14.40215179 32.03237549 -14.07774109 31.25225098 -13.74349976 30.44848633 C-13.05813222 28.8035878 -12.37047107 27.15964329 -11.68066406 25.51660156 C-10.62965112 23.01108782 -9.58776085 20.50192267 -8.546875 17.9921875 C-7.87814753 16.39039804 -7.20889407 14.78882806 -6.5390625 13.1875 C-6.22957672 12.44153564 -5.92009094 11.69557129 -5.60122681 10.92700195 C-2.32344377 3.15114917 -2.32344377 3.15114917 0 0 Z " fill="#1736CB" transform="translate(295,29)"/>
<path d="M0 0 C3.77057547 -0.11597653 7.54069393 -0.18717396 11.3125 -0.25 C12.38435547 -0.28351562 13.45621094 -0.31703125 14.56054688 -0.3515625 C15.58857422 -0.36445313 16.61660156 -0.37734375 17.67578125 -0.390625 C18.62364502 -0.41157227 19.57150879 -0.43251953 20.5480957 -0.45410156 C23 0 23 0 24.74609375 1.65820312 C26.21451344 4.40062556 26.80959206 6.80216332 27.38671875 9.859375 C27.60263672 10.97441406 27.81855469 12.08945312 28.04101562 13.23828125 C28.36102539 14.97658203 28.36102539 14.97658203 28.6875 16.75 C28.91244141 17.92433594 29.13738281 19.09867188 29.36914062 20.30859375 C29.9223385 23.20405495 30.46556148 26.10102786 31 29 C31.32798584 28.15703369 31.65597168 27.31406738 31.99389648 26.44555664 C33.20875678 23.32689115 34.4259576 20.20916086 35.64477539 17.09204102 C36.17241487 15.74117346 36.69911087 14.38993699 37.22485352 13.03833008 C37.97947075 11.0988002 38.73743968 9.16061005 39.49609375 7.22265625 C40.17949829 5.47094116 40.17949829 5.47094116 40.87670898 3.68383789 C42 1 42 1 43 0 C45.01964199 -0.07244053 47.04167124 -0.08377188 49.0625 -0.0625 C50.71958984 -0.04896484 50.71958984 -0.04896484 52.41015625 -0.03515625 C53.26480469 -0.02355469 54.11945313 -0.01195313 55 0 C54.41483861 3.2994286 53.61733735 6.24148175 52.32592773 9.33129883 C51.98565048 10.151772 51.64537323 10.97224518 51.29478455 11.81758118 C50.92809158 12.6885997 50.56139862 13.55961823 50.18359375 14.45703125 C49.80767593 15.35999435 49.43175812 16.26295746 49.04444885 17.19328308 C47.84642994 20.06817075 46.64205955 22.94034754 45.4375 25.8125 C44.62262621 27.76479843 43.80816824 29.71727047 42.99414062 31.66992188 C41.00090788 36.44864034 39.0019758 41.22493809 37 46 C32.38 46 27.76 46 23 46 C22.54109375 44.11796875 22.0821875 42.2359375 21.609375 40.296875 C20.98983985 37.78118681 20.37003371 35.26556535 19.75 32.75 C19.44964844 31.51507813 19.14929688 30.28015625 18.83984375 29.0078125 C17.92955984 25.32794137 16.97791095 21.66245025 16 18 C15.55092285 16.27475098 15.55092285 16.27475098 15.09277344 14.51464844 C13.37805847 8.25424356 13.37805847 8.25424356 8.984375 3.734375 C7.91703125 3.40953125 6.8496875 3.0846875 5.75 2.75 C4.67234375 2.39421875 3.5946875 2.0384375 2.484375 1.671875 C1.66453125 1.45015625 0.8446875 1.2284375 0 1 C0 0.67 0 0.34 0 0 Z " fill="#1938CC" transform="translate(170,29)"/>
<path d="M0 0 C0.10871967 2.54283234 0.18762401 5.08095088 0.25 7.625 C0.28351563 8.33785156 0.31703125 9.05070312 0.3515625 9.78515625 C0.44670105 14.97020715 -0.44425838 17.97257837 -4 22 C-8.09247778 24.15808288 -11.9254222 24.2746873 -16.45239258 24.22705078 C-17.1846405 24.22734283 -17.91688843 24.22763489 -18.67132568 24.22793579 C-21.07918359 24.2265482 -23.48672775 24.21101418 -25.89453125 24.1953125 C-27.56890189 24.19158033 -29.24327471 24.18873432 -30.91764832 24.18673706 C-35.31531856 24.17911663 -39.71285579 24.15948184 -44.11047363 24.1373291 C-48.60162558 24.11683638 -53.09279911 24.10772802 -57.58398438 24.09765625 C-66.38938382 24.0762344 -75.19467534 24.04211772 -84 24 C-81.74139203 21.74139203 -80.66231166 21.48530839 -77.6171875 20.73828125 C-76.2559375 20.39603516 -76.2559375 20.39603516 -74.8671875 20.046875 C-73.87976563 19.80453125 -72.89234375 19.5621875 -71.875 19.3125 C-63.52959465 17.20518031 -55.25028299 14.9533004 -47 12.5 C-36.28301986 9.32495551 -25.50112761 6.46702231 -14.67333984 3.69726562 C-10.81407707 2.69068531 -6.97094476 1.62717625 -3.12817383 0.55957031 C-1 0 -1 0 0 0 Z " fill="#FC6324" transform="translate(478,79)"/>
<path d="M0 0 C0.99 0.66 1.98 1.32 3 2 C2.51421457 5.12290635 2.0013988 7.99580359 1 11 C-3.95 11 -8.9 11 -14 11 C-14.33 12.32 -14.66 13.64 -15 15 C-14.49210937 15.30292969 -13.98421875 15.60585938 -13.4609375 15.91796875 C-0.53361063 23.78572387 -0.53361063 23.78572387 1 29 C1.46701578 33.20314201 1.30461183 35.42462209 -0.6875 39.1875 C-4.72988761 44.10391736 -8.6110644 47.10330728 -15 48 C-27.18818495 48.72226281 -27.18818495 48.72226281 -33 46 C-32.67 42.7 -32.34 39.4 -32 36 C-31.05125 36.165 -30.1025 36.33 -29.125 36.5 C-20.86955678 37.7565627 -20.86955678 37.7565627 -13 36 C-12.46603733 33.67621996 -12.46603733 33.67621996 -13 31 C-15.14270481 29.35222982 -17.02096577 28.13147819 -19.375 26.875 C-25.77962754 23.33055869 -25.77962754 23.33055869 -28 20 C-28.65602115 15.07221322 -28.78210559 10.53162344 -26.5 6.0625 C-18.31276077 -0.69197236 -10.21706092 -0.97738291 0 0 Z " fill="#1939CC" transform="translate(275,28)"/>
<path d="M0 0 C1.65068481 -0.01268921 1.65068481 -0.01268921 3.3347168 -0.02563477 C5.13103294 -0.01652573 5.13103294 -0.01652573 6.96363831 -0.00723267 C8.23244843 -0.01248962 9.50125854 -0.01774658 10.80851746 -0.02316284 C14.28174173 -0.03681875 17.75469812 -0.03154472 21.22792697 -0.02202559 C24.86730074 -0.01441833 28.50665192 -0.02147771 32.14602661 -0.02618408 C38.25828661 -0.03163924 44.3704378 -0.0244571 50.48268127 -0.01016235 C57.54175369 0.00615647 64.60056605 0.0008804 71.65963215 -0.01564157 C77.7268904 -0.02927205 83.79407053 -0.03116827 89.86133915 -0.02332556 C93.48214131 -0.01865666 97.1028214 -0.01800238 100.72361565 -0.02793503 C104.76211219 -0.03823991 108.80016322 -0.02394188 112.83863831 -0.00723267 C114.03415817 -0.01330536 115.22967804 -0.01937805 116.46142578 -0.02563477 C127.04422444 0.05550981 127.04422444 0.05550981 131.46583557 3.38095093 C135.39656889 7.8784259 136.047098 11.70727783 135.9834137 17.49423218 C135.99042297 18.28526337 135.99743225 19.07629456 136.00465393 19.89129639 C136.02218343 22.49237725 136.01062967 25.09236002 135.99708557 27.69345093 C135.99978195 29.50896411 136.00366558 31.32447588 136.00868225 33.13998413 C136.01457045 36.93952219 136.00603632 40.73868335 135.98731995 44.53817749 C135.9645307 49.4006297 135.97765744 54.2621987 136.0016098 59.12461853 C136.01608619 62.87194433 136.01145337 66.61906185 136.00109863 70.36639404 C135.99843643 72.15889593 136.00168325 73.95141692 136.01101685 75.74389648 C136.02121301 78.25232805 136.00563982 80.75934321 135.9834137 83.26766968 C135.99151062 84.00343231 135.99960754 84.73919495 136.00794983 85.49725342 C135.92461488 90.59177212 134.81442298 93.54955693 131.46583557 97.38095093 C125.93877234 101.53388791 119.46663761 100.80993395 112.85450745 100.78500366 C110.95107323 100.79529854 110.95107323 100.79529854 109.00918579 100.80580139 C105.54016689 100.82369949 102.07140139 100.82257104 98.60235023 100.81685901 C95.70221823 100.81376279 92.8021346 100.81986428 89.90200949 100.82589775 C83.05914864 100.83992986 76.21641268 100.83839221 69.37355042 100.82699585 C62.321787 100.81551088 55.27040373 100.82959935 48.2186904 100.85639232 C42.15565363 100.87856349 36.09273607 100.88518369 30.02966166 100.87931591 C26.41217852 100.87594908 22.79493915 100.8783431 19.17749023 100.89556694 C15.14380378 100.9139358 11.11085537 100.89983464 7.0771637 100.88265991 C5.88321487 100.89232788 4.68926605 100.90199585 3.45913696 100.91195679 C-6.99105722 100.81868602 -6.99105722 100.81868602 -11.53416443 96.38095093 C-14.59595855 91.83123473 -14.97133739 87.70393807 -14.93821716 82.35946655 C-14.94508041 81.57818893 -14.95194366 80.79691132 -14.95901489 79.99195862 C-14.97723447 77.42351834 -14.97345291 74.85569162 -14.96775818 72.28720093 C-14.97232188 70.4941081 -14.97762802 68.70101702 -14.98364258 66.90792847 C-14.99256383 63.1555367 -14.9901613 59.40335788 -14.98020935 55.65097046 C-14.96871306 50.84908056 -14.98894609 46.04792531 -15.01812649 41.2461319 C-15.03649529 37.54514928 -15.03619482 33.84434258 -15.03048897 30.14332581 C-15.03033588 28.37314319 -15.03637002 26.60294856 -15.04878044 24.83280945 C-15.06370419 22.35555232 -15.05300478 19.87965079 -15.03587341 17.4024353 C-15.04554138 16.67602341 -15.05520935 15.94961151 -15.06517029 15.20118713 C-14.9919512 10.12994956 -13.80469794 7.23216346 -10.53416443 3.38095093 C-6.91160394 0.78775268 -4.43342738 0.00525834 0 0 Z M-11.53416443 7.38095093 C-13.05958137 10.43178481 -12.69025614 13.6164375 -12.69529724 16.96420288 C-12.70026215 17.74650269 -12.70522705 18.52880249 -12.71034241 19.33480835 C-12.72497844 21.92962516 -12.73176883 24.52438082 -12.73728943 27.11923218 C-12.74304022 28.92043561 -12.74879796 30.72163902 -12.75456238 32.52284241 C-12.76507682 36.30326625 -12.77091641 40.08366881 -12.7743988 43.86410522 C-12.77988089 48.70641098 -12.80390089 53.54843516 -12.83237076 58.39065266 C-12.85100341 62.11300984 -12.8562031 65.83529933 -12.85773468 69.5576992 C-12.86076092 71.34266891 -12.86878849 73.12763744 -12.88191986 74.91256142 C-12.89899169 77.41176314 -12.89709736 79.91027886 -12.89060974 82.40951538 C-12.89982452 83.14580673 -12.90903931 83.88209808 -12.91853333 84.64070129 C-12.88253071 89.07240799 -12.36155616 91.92329791 -9.53416443 95.38095093 C-5.93253568 97.93935884 -3.47436076 98.75660307 0.92407227 98.76190186 C2.54951462 98.77459106 2.54951462 98.77459106 4.20779419 98.78753662 C5.38663681 98.78146393 6.56547943 98.77539124 7.78004456 98.76913452 C9.02934753 98.77439148 10.27865051 98.77964844 11.56581116 98.7850647 C14.98542241 98.7959968 18.40448823 98.7934473 21.82406878 98.78392744 C25.40738823 98.77631949 28.99068474 98.78337976 32.57400513 98.78808594 C38.59210888 98.7935409 44.61010212 98.78635947 50.62818909 98.77206421 C57.57819975 98.75574553 64.52794627 98.76102142 71.47795051 98.77754343 C77.45179163 98.79117459 83.42555341 98.79306979 89.39940506 98.78522742 C92.96431655 98.78055888 96.52910405 98.77990323 100.09400749 98.78983688 C104.07018607 98.80014288 108.04607089 98.78584243 112.02223206 98.76913452 C113.19905045 98.77520721 114.37586884 98.78127991 115.58834839 98.78753662 C123.49084618 98.79492031 123.49084618 98.79492031 130.46583557 95.38095093 C133.78975256 91.42517336 133.8914191 87.6087418 133.83815002 82.64071655 C133.84180069 81.87748581 133.84545135 81.11425507 133.84921265 80.32789612 C133.85729462 77.81410214 133.84372794 75.30095757 133.82911682 72.78720093 C133.82859793 71.03512574 133.82911675 69.28304996 133.83062744 67.53097534 C133.83053782 63.86255173 133.8201297 60.19434836 133.80201721 56.52597046 C133.77933047 51.8283896 133.77878709 47.13113039 133.78553486 42.43350983 C133.78887949 38.81665193 133.78223542 35.1998671 133.77240562 31.58302307 C133.76856187 29.85110354 133.76740199 28.11917587 133.76899147 26.38725281 C133.76936315 23.96507334 133.75671335 21.54330316 133.74049377 19.1211853 C133.74297119 18.40830856 133.74544861 17.69543182 133.7480011 16.96095276 C133.69679039 12.158757 133.12235218 8.39757985 130.02833557 4.63095093 C126.95626173 2.17329185 123.93812978 2.24901355 120.17218018 2.22705078 C119.07447296 2.21845032 117.97676575 2.20984985 116.84579468 2.20098877 C115.0386927 2.19459885 115.0386927 2.19459885 113.19508362 2.18807983 C111.92656555 2.17990234 110.65804749 2.17172485 109.35108948 2.16329956 C105.14326596 2.13711046 100.93543264 2.1217762 96.72755432 2.10751343 C95.27803351 2.10215268 93.82851277 2.09677517 92.37899208 2.09138107 C86.3491626 2.06975794 80.31933577 2.05102137 74.28947735 2.03975868 C65.65235719 2.02351886 57.01568681 1.99033445 48.3787362 1.93335783 C42.3030483 1.89464557 36.22748065 1.87512458 30.15167266 1.86983812 C26.52397254 1.86618668 22.89675248 1.85418844 19.26918602 1.82173538 C15.22077595 1.78603545 11.1733318 1.79002875 7.12477112 1.79745483 C5.32677818 1.77284683 5.32677818 1.77284683 3.49246216 1.7477417 C-3.3024077 1.79883978 -6.95912677 2.16695767 -11.53416443 7.38095093 Z " fill="#D9D9D8" transform="translate(344.53416442871094,4.619049072265625)"/>
<path d="M0 0 C1.65068481 -0.01268921 1.65068481 -0.01268921 3.3347168 -0.02563477 C5.13103294 -0.01652573 5.13103294 -0.01652573 6.96363831 -0.00723267 C8.23244843 -0.01248962 9.50125854 -0.01774658 10.80851746 -0.02316284 C14.28174173 -0.03681875 17.75469812 -0.03154472 21.22792697 -0.02202559 C24.86730074 -0.01441833 28.50665192 -0.02147771 32.14602661 -0.02618408 C38.25828661 -0.03163924 44.3704378 -0.0244571 50.48268127 -0.01016235 C57.54175369 0.00615647 64.60056605 0.0008804 71.65963215 -0.01564157 C77.7268904 -0.02927205 83.79407053 -0.03116827 89.86133915 -0.02332556 C93.48214131 -0.01865666 97.1028214 -0.01800238 100.72361565 -0.02793503 C104.76211219 -0.03823991 108.80016322 -0.02394188 112.83863831 -0.00723267 C114.03415817 -0.01330536 115.22967804 -0.01937805 116.46142578 -0.02563477 C127.04422444 0.05550981 127.04422444 0.05550981 131.46583557 3.38095093 C135.39656889 7.8784259 136.047098 11.70727783 135.9834137 17.49423218 C135.99042297 18.28526337 135.99743225 19.07629456 136.00465393 19.89129639 C136.02218343 22.49237725 136.01062967 25.09236002 135.99708557 27.69345093 C135.99978195 29.50896411 136.00366558 31.32447588 136.00868225 33.13998413 C136.01457045 36.93952219 136.00603632 40.73868335 135.98731995 44.53817749 C135.9645307 49.4006297 135.97765744 54.2621987 136.0016098 59.12461853 C136.01608619 62.87194433 136.01145337 66.61906185 136.00109863 70.36639404 C135.99843643 72.15889593 136.00168325 73.95141692 136.01101685 75.74389648 C136.02121301 78.25232805 136.00563982 80.75934321 135.9834137 83.26766968 C135.99151062 84.00343231 135.99960754 84.73919495 136.00794983 85.49725342 C135.92461847 90.59155234 134.75652327 93.51260034 131.46583557 97.38095093 C127.83215903 99.98363296 125.34107529 100.75738591 120.89370728 100.76863098 C119.78483658 100.77853561 118.67596588 100.78844025 117.53349304 100.79864502 C116.32659821 100.79414337 115.11970337 100.78964172 113.87623596 100.78500366 C112.59767227 100.79186691 111.31910858 100.79873016 110.00180054 100.80580139 C106.50173247 100.82372342 103.00191523 100.82256628 99.50181508 100.81685901 C96.57688009 100.81376565 93.65199317 100.81986125 90.72706503 100.82589775 C83.82525049 100.8399383 76.92355974 100.83838574 70.02174377 100.82699585 C62.90808633 100.81551558 55.79480594 100.82958954 48.68119818 100.85639232 C42.5672268 100.87856378 36.45337366 100.88518346 30.33936495 100.87931591 C26.69056858 100.87594848 23.04201388 100.87834685 19.39325142 100.89556694 C15.3235354 100.91393593 11.25455091 100.8998343 7.18482971 100.88265991 C5.97995911 100.89232788 4.7750885 100.90199585 3.53370667 100.91195679 C-7.00374247 100.81874135 -7.00374247 100.81874135 -11.53416443 96.38095093 C-14.59595855 91.83123473 -14.97133739 87.70393807 -14.93821716 82.35946655 C-14.94508041 81.57818893 -14.95194366 80.79691132 -14.95901489 79.99195862 C-14.97723447 77.42351834 -14.97345291 74.85569162 -14.96775818 72.28720093 C-14.97232188 70.4941081 -14.97762802 68.70101702 -14.98364258 66.90792847 C-14.99256383 63.1555367 -14.9901613 59.40335788 -14.98020935 55.65097046 C-14.96871306 50.84908056 -14.98894609 46.04792531 -15.01812649 41.2461319 C-15.03649529 37.54514928 -15.03619482 33.84434258 -15.03048897 30.14332581 C-15.03033588 28.37314319 -15.03637002 26.60294856 -15.04878044 24.83280945 C-15.06370419 22.35555232 -15.05300478 19.87965079 -15.03587341 17.4024353 C-15.04554138 16.67602341 -15.05520935 15.94961151 -15.06517029 15.20118713 C-14.9919512 10.12994956 -13.80469794 7.23216346 -10.53416443 3.38095093 C-6.91160394 0.78775268 -4.43342738 0.00525834 0 0 Z M-11.53416443 7.38095093 C-13.05958137 10.43178481 -12.69025614 13.6164375 -12.69529724 16.96420288 C-12.70026215 17.74650269 -12.70522705 18.52880249 -12.71034241 19.33480835 C-12.72497844 21.92962516 -12.73176883 24.52438082 -12.73728943 27.11923218 C-12.74304022 28.92043561 -12.74879796 30.72163902 -12.75456238 32.52284241 C-12.76507682 36.30326625 -12.77091641 40.08366881 -12.7743988 43.86410522 C-12.77988089 48.70641098 -12.80390089 53.54843516 -12.83237076 58.39065266 C-12.85100341 62.11300984 -12.8562031 65.83529933 -12.85773468 69.5576992 C-12.86076092 71.34266891 -12.86878849 73.12763744 -12.88191986 74.91256142 C-12.89899169 77.41176314 -12.89709736 79.91027886 -12.89060974 82.40951538 C-12.89982452 83.14580673 -12.90903931 83.88209808 -12.91853333 84.64070129 C-12.88253071 89.07240799 -12.36155616 91.92329791 -9.53416443 95.38095093 C-5.92143097 97.94926158 -3.4504506 98.75730022 0.96203613 98.76863098 C2.05407852 98.77853561 3.14612091 98.78844025 4.27125549 98.79864502 C6.05354553 98.79189255 6.05354553 98.79189255 7.87184143 98.78500366 C9.76042625 98.79529854 9.76042625 98.79529854 11.68716431 98.80580139 C15.13351623 98.82372176 18.57961338 98.8225666 22.02599788 98.81685901 C24.90619724 98.8137654 27.78634779 98.81986152 30.66654021 98.82589775 C37.46287995 98.83993776 44.25909398 98.8383862 51.05543518 98.82699585 C58.06003169 98.81551567 65.06424528 98.82958948 72.06879133 98.85639232 C78.08934564 98.87856488 84.10977988 98.88518321 90.13037211 98.87931591 C93.72327855 98.87594873 97.31593957 98.87834513 100.90881157 98.89556694 C104.91626527 98.91393815 108.92297621 98.8998332 112.93043518 98.88265991 C114.11660431 98.89232788 115.30277344 98.90199585 116.52488708 98.91195679 C122.78271531 98.85574849 126.77177116 98.70335666 131.46583557 94.38095093 C133.90453115 90.72290756 133.74809208 88.00413912 133.72462463 83.77597046 C133.72812927 83.0032782 133.73163391 82.23058594 133.73524475 81.43447876 C133.74405444 78.87748252 133.7382145 76.32076254 133.73146057 73.76376343 C133.73280772 71.98640896 133.73474866 70.20905486 133.73725891 68.43170166 C133.74020937 64.70429989 133.73591607 60.97699391 133.72657776 57.24960327 C133.71519984 52.47575284 133.72173264 47.70212771 133.73372269 42.9282856 C133.74095755 39.25653392 133.73864559 35.58483543 133.7334671 31.91308212 C133.73213425 30.15324756 133.73376557 28.39340815 133.73842621 26.63357925 C133.7435163 24.17049672 133.73574568 21.70777611 133.72462463 19.24472046 C133.73069733 18.15666611 133.73069733 18.15666611 133.7368927 17.04663086 C133.69649314 12.20647555 133.14763316 8.42835669 130.02833557 4.63095093 C126.95626173 2.17329185 123.93812978 2.24901355 120.17218018 2.22705078 C119.07447296 2.21845032 117.97676575 2.20984985 116.84579468 2.20098877 C115.0386927 2.19459885 115.0386927 2.19459885 113.19508362 2.18807983 C111.92656555 2.17990234 110.65804749 2.17172485 109.35108948 2.16329956 C105.14326596 2.13711046 100.93543264 2.1217762 96.72755432 2.10751343 C95.27803351 2.10215268 93.82851277 2.09677517 92.37899208 2.09138107 C86.3491626 2.06975794 80.31933577 2.05102137 74.28947735 2.03975868 C65.65235719 2.02351886 57.01568681 1.99033445 48.3787362 1.93335783 C42.3030483 1.89464557 36.22748065 1.87512458 30.15167266 1.86983812 C26.52397254 1.86618668 22.89675248 1.85418844 19.26918602 1.82173538 C15.22077595 1.78603545 11.1733318 1.79002875 7.12477112 1.79745483 C5.32677818 1.77284683 5.32677818 1.77284683 3.49246216 1.7477417 C-3.3024077 1.79883978 -6.95912677 2.16695767 -11.53416443 7.38095093 Z " fill="#D9D9D9" transform="translate(24.534164428710938,4.619049072265625)"/>
<path d="M0 0 C1.65068481 -0.01268921 1.65068481 -0.01268921 3.3347168 -0.02563477 C5.13103294 -0.01652573 5.13103294 -0.01652573 6.96363831 -0.00723267 C8.23244843 -0.01248962 9.50125854 -0.01774658 10.80851746 -0.02316284 C14.28174173 -0.03681875 17.75469812 -0.03154472 21.22792697 -0.02202559 C24.86730074 -0.01441833 28.50665192 -0.02147771 32.14602661 -0.02618408 C38.25828661 -0.03163924 44.3704378 -0.0244571 50.48268127 -0.01016235 C57.54175369 0.00615647 64.60056605 0.0008804 71.65963215 -0.01564157 C77.7268904 -0.02927205 83.79407053 -0.03116827 89.86133915 -0.02332556 C93.48214131 -0.01865666 97.1028214 -0.01800238 100.72361565 -0.02793503 C104.76211219 -0.03823991 108.80016322 -0.02394188 112.83863831 -0.00723267 C114.03415817 -0.01330536 115.22967804 -0.01937805 116.46142578 -0.02563477 C126.63311505 0.05235759 126.63311505 0.05235759 131.46583557 3.38095093 C135.54622118 7.88344539 135.62159316 12.23744261 135.64283752 18.06185913 C135.64940872 18.84269867 135.65597992 19.62353821 135.66275024 20.42803955 C135.6824639 23.01260475 135.6941412 25.59711191 135.70411682 28.18173218 C135.70819235 29.0651296 135.71226788 29.94852703 135.7164669 30.85869408 C135.7373189 35.53399801 135.75162467 40.20927267 135.76100159 44.88461304 C135.77206727 49.71006115 135.80647136 54.53504829 135.84617329 59.36033344 C135.87233358 63.0741511 135.88069287 66.78785879 135.88428307 70.50176048 C135.88915015 72.28033755 135.90076765 74.05890967 135.91932106 75.83739662 C135.94370168 78.32925469 135.94274988 80.81991799 135.93580627 83.31185913 C135.95502136 84.40854668 135.95502136 84.40854668 135.97462463 85.52738953 C135.92303907 90.61965894 134.81182181 93.55344983 131.46583557 97.38095093 C125.93877234 101.53388791 119.46663761 100.80993395 112.85450745 100.78500366 C110.95107323 100.79529854 110.95107323 100.79529854 109.00918579 100.80580139 C105.54016689 100.82369949 102.07140139 100.82257104 98.60235023 100.81685901 C95.70221823 100.81376279 92.8021346 100.81986428 89.90200949 100.82589775 C83.05914864 100.83992986 76.21641268 100.83839221 69.37355042 100.82699585 C62.321787 100.81551088 55.27040373 100.82959935 48.2186904 100.85639232 C42.15565363 100.87856349 36.09273607 100.88518369 30.02966166 100.87931591 C26.41217852 100.87594908 22.79493915 100.8783431 19.17749023 100.89556694 C15.14380378 100.9139358 11.11085537 100.89983464 7.0771637 100.88265991 C5.88321487 100.89232788 4.68926605 100.90199585 3.45913696 100.91195679 C-6.99105722 100.81868602 -6.99105722 100.81868602 -11.53416443 96.38095093 C-14.59595855 91.83123473 -14.97133739 87.70393807 -14.93821716 82.35946655 C-14.94508041 81.57818893 -14.95194366 80.79691132 -14.95901489 79.99195862 C-14.97723447 77.42351834 -14.97345291 74.85569162 -14.96775818 72.28720093 C-14.97232188 70.4941081 -14.97762802 68.70101702 -14.98364258 66.90792847 C-14.99256383 63.1555367 -14.9901613 59.40335788 -14.98020935 55.65097046 C-14.96871306 50.84908056 -14.98894609 46.04792531 -15.01812649 41.2461319 C-15.03649529 37.54514928 -15.03619482 33.84434258 -15.03048897 30.14332581 C-15.03033588 28.37314319 -15.03637002 26.60294856 -15.04878044 24.83280945 C-15.06370419 22.35555232 -15.05300478 19.87965079 -15.03587341 17.4024353 C-15.04554138 16.67602341 -15.05520935 15.94961151 -15.06517029 15.20118713 C-14.9919512 10.12994956 -13.80469794 7.23216346 -10.53416443 3.38095093 C-6.91160394 0.78775268 -4.43342738 0.00525834 0 0 Z M-11.53416443 7.38095093 C-13.05958137 10.43178481 -12.69025614 13.6164375 -12.69529724 16.96420288 C-12.70026215 17.74650269 -12.70522705 18.52880249 -12.71034241 19.33480835 C-12.72497844 21.92962516 -12.73176883 24.52438082 -12.73728943 27.11923218 C-12.74304022 28.92043561 -12.74879796 30.72163902 -12.75456238 32.52284241 C-12.76507682 36.30326625 -12.77091641 40.08366881 -12.7743988 43.86410522 C-12.77988089 48.70641098 -12.80390089 53.54843516 -12.83237076 58.39065266 C-12.85100341 62.11300984 -12.8562031 65.83529933 -12.85773468 69.5576992 C-12.86076092 71.34266891 -12.86878849 73.12763744 -12.88191986 74.91256142 C-12.89899169 77.41176314 -12.89709736 79.91027886 -12.89060974 82.40951538 C-12.89982452 83.14580673 -12.90903931 83.88209808 -12.91853333 84.64070129 C-12.88253071 89.07240799 -12.36155616 91.92329791 -9.53416443 95.38095093 C-5.92143097 97.94926158 -3.4504506 98.75730022 0.96203613 98.76863098 C2.05407852 98.77853561 3.14612091 98.78844025 4.27125549 98.79864502 C6.05354553 98.79189255 6.05354553 98.79189255 7.87184143 98.78500366 C9.76042625 98.79529854 9.76042625 98.79529854 11.68716431 98.80580139 C15.13351623 98.82372176 18.57961338 98.8225666 22.02599788 98.81685901 C24.90619724 98.8137654 27.78634779 98.81986152 30.66654021 98.82589775 C37.46287995 98.83993776 44.25909398 98.8383862 51.05543518 98.82699585 C58.06003169 98.81551567 65.06424528 98.82958948 72.06879133 98.85639232 C78.08934564 98.87856488 84.10977988 98.88518321 90.13037211 98.87931591 C93.72327855 98.87594873 97.31593957 98.87834513 100.90881157 98.89556694 C104.91626527 98.91393815 108.92297621 98.8998332 112.93043518 98.88265991 C114.11660431 98.89232788 115.30277344 98.90199585 116.52488708 98.91195679 C122.75377644 98.85600842 126.84055819 98.76347321 131.46583557 94.38095093 C134.14928265 90.89198956 133.76840245 86.81327169 133.77223206 82.58651733 C133.78471733 81.41503899 133.78471733 81.41503899 133.79745483 80.21989441 C133.82153018 77.64071655 133.8303237 75.0617917 133.83692932 72.48251343 C133.84589727 70.68656336 133.85501915 68.89061406 133.86428833 67.09466553 C133.88077398 63.33037501 133.88847771 59.5661734 133.89137268 55.80184937 C133.8967572 50.9841267 133.93444157 46.16724221 133.98011684 41.34975624 C134.00989454 37.64020758 134.01709638 33.93086064 134.01809883 30.22120285 C134.02229945 28.44540949 134.03472745 26.66961544 134.05561638 24.89393997 C134.08254764 22.40672827 134.07770149 19.92145783 134.06520081 17.43417358 C134.0800351 16.7046196 134.09486938 15.97506561 134.1101532 15.22340393 C134.02895904 9.53516504 132.35605243 7.228521 128.46583557 3.38095093 C125.9155723 2.10581929 124.11075677 2.24356506 121.25447083 2.22705078 C120.14972412 2.21845032 119.04497742 2.20984985 117.90675354 2.20098877 C116.68907288 2.19672882 115.47139221 2.19246887 114.21681213 2.18807983 C112.93868652 2.17990234 111.66056091 2.17172485 110.34370422 2.16329956 C106.09797781 2.13707401 101.85224151 2.12177016 97.60646057 2.10751343 C96.14486942 2.10215373 94.68327834 2.09677622 93.22168732 2.09138107 C87.14128601 2.06975044 81.06088736 2.05101427 74.98045731 2.03975868 C66.26718138 2.02352339 57.55435168 1.99035856 48.84124398 1.93335783 C42.71462125 1.8946451 36.58811778 1.87512438 30.46137595 1.86983812 C26.80236359 1.86618604 23.1438271 1.85418154 19.4849472 1.82173538 C15.4005078 1.78603528 11.31702582 1.79002889 7.23243713 1.79745483 C5.41806152 1.77284683 5.41806152 1.77284683 3.56703186 1.7477417 C-3.25005208 1.79855394 -6.94897721 2.13986308 -11.53416443 7.38095093 Z " fill="#D8D8D9" transform="translate(506.53416442871094,4.619049072265625)"/>
<path d="M0 0 C6.32938308 2.72818236 9.60592974 8.6619732 12.375 14.75 C15.22663794 22.71031697 15.31755142 29.72723306 11.84130859 37.52783203 C8.86549382 43.60968361 5.61995935 48.10043637 0 52 C-7.5773703 44.57548732 -12.14880463 36.24657109 -12.625 25.5 C-12.23592699 16.73008401 -9.39800339 9.03624124 -3.1875 2.75 C-2.14212879 1.81384667 -1.08593639 0.88877791 0 0 Z " fill="#F16121" transform="translate(82,23)"/>
<path d="M0 0 C2.97 0 5.94 0 9 0 C12.465 7.92 12.465 7.92 16 16 C16.33 10.72 16.66 5.44 17 0 C19.97 0 22.94 0 26 0 C27.00508801 1.78881736 28.00392736 3.58114696 29 5.375 C29.556875 6.37273438 30.11375 7.37046875 30.6875 8.3984375 C32 11 32 11 32 13 C32.66 13 33.32 13 34 13 C34.19335938 12.39671875 34.38671875 11.7934375 34.5859375 11.171875 C34.84632813 10.37265625 35.10671875 9.5734375 35.375 8.75 C35.75785156 7.56664062 35.75785156 7.56664062 36.1484375 6.359375 C37 4 37 4 39 0 C41.97 0 44.94 0 48 0 C48 6.93 48 13.86 48 21 C46.35 21 44.7 21 43 21 C42.67 16.38 42.34 11.76 42 7 C40.02 11.62 38.04 16.24 36 21 C34.02 21 32.04 21 30 21 C28.02 16.71 26.04 12.42 24 8 C23.67 12.62 23.34 17.24 23 22 C19.37 22 15.74 22 12 22 C11.34 20.68 10.68 19.36 10 18 C7.1213065 17.29464389 7.1213065 17.29464389 3.875 17.25 C2.77929688 17.19328125 1.68359375 17.1365625 0.5546875 17.078125 C-0.28835938 17.05234375 -1.13140625 17.0265625 -2 17 C-2.33 18.32 -2.66 19.64 -3 21 C-4.98 21 -6.96 21 -9 21 C-6.32365696 13.80458592 -3.59434934 6.78932652 0 0 Z " fill="#2374CD" transform="translate(521,45)"/>
<path d="M0 0 C3.56377018 -0.13510502 7.12241117 -0.23417099 10.6875 -0.3125 C12.19860352 -0.3753418 12.19860352 -0.3753418 13.74023438 -0.43945312 C21.09943646 -0.5608921 21.09943646 -0.5608921 23.82275391 1.13525391 C25.20703125 2.51953125 25.20703125 2.51953125 27 5 C29.22655661 4.00188842 30.76254312 3.29399424 32.3125 1.375 C34.99792857 -0.81312698 37.67227311 -0.1883619 41 0 C40.04270084 1.12588014 39.08412105 2.2506715 38.125 3.375 C37.59132813 4.00148438 37.05765625 4.62796875 36.5078125 5.2734375 C35.38567993 6.55836651 34.20628025 7.79371975 33 9 C33.29103692 12.61930525 34.97980731 14.28220438 37.5625 16.6875 C38.72214785 17.77714899 39.87186545 18.87775649 41 20 C41 20.33 41 20.66 41 21 C37.8125 21.3125 37.8125 21.3125 34 21 C31.0625 18.5 31.0625 18.5 29 16 C26.81588266 16.97908708 25.24415945 17.71168646 23.68237305 19.5559082 C21.37143257 21.5395409 19.90663473 21.34520176 16.89453125 21.29296875 C15.91162109 21.28330078 14.92871094 21.27363281 13.91601562 21.26367188 C12.89185547 21.23853516 11.86769531 21.21339844 10.8125 21.1875 C9.77673828 21.17396484 8.74097656 21.16042969 7.67382812 21.14648438 C5.11566388 21.11111805 2.55776671 21.05731096 0 21 C0 14.07 0 7.14 0 0 Z " fill="#2475CE" transform="translate(574,45)"/>
<path d="M0 0 C3.96 0 7.92 0 12 0 C11.36047093 7.82328026 9.74422321 15.37540814 8.04370117 23.02124023 C7.56151851 25.19191844 7.08787446 27.36433567 6.61523438 29.53710938 C5.31349991 35.45595245 4.01210889 41.27238347 2 47 C-1.96 47 -5.92 47 -10 47 C-8.29132518 37.02673485 -6.09116159 27.18210462 -3.875 17.3125 C-3.49849925 15.62829961 -3.12219565 13.94405513 -2.74609375 12.25976562 C-1.83299991 8.17266559 -0.917245 4.08617033 0 0 Z " fill="#1B3ACC" transform="translate(231,28)"/>
<path d="M0 0 C2.97 0 5.94 0 9 0 C12.465 7.92 12.465 7.92 16 16 C16.33 10.72 16.66 5.44 17 0 C17.33 0 17.66 0 18 0 C18 6.6 18 13.2 18 20 C19.32 20.33 20.64 20.66 22 21 C22 15.72 22 10.44 22 5 C22.66 5.66 23.32 6.32 24 7 C23.98252112 9.59269983 23.86231408 12.0525154 23.625 14.625 C23.53992188 15.68460938 23.53992188 15.68460938 23.453125 16.765625 C23.31159079 18.51121361 23.15702613 20.25573673 23 22 C19.37 22 15.74 22 12 22 C11.34 20.68 10.68 19.36 10 18 C7.1213065 17.29464389 7.1213065 17.29464389 3.875 17.25 C2.77929688 17.19328125 1.68359375 17.1365625 0.5546875 17.078125 C-0.28835938 17.05234375 -1.13140625 17.0265625 -2 17 C-2.33 18.32 -2.66 19.64 -3 21 C-4.98 21 -6.96 21 -9 21 C-6.32365696 13.80458592 -3.59434934 6.78932652 0 0 Z " fill="#3580D2" transform="translate(521,45)"/>
<path d="M0 0 C3 2.4375 3 2.4375 5 5 C5.33 5.33 5.66 5.66 6 6 C6.38387346 10.99035504 6.08713243 13.99816167 3 18 C-0.54210144 20.36140096 -2.53929649 20.60306348 -6.703125 20.5078125 C-10.26166667 19.72106009 -11.87012436 17.89216836 -13.96484375 15.00390625 C-15.63279611 11.77500225 -15.65535717 9.53892873 -15 6 C-11.03979224 -0.07231857 -7.00120938 -1.12454658 0 0 Z " fill="#FD6425" transform="translate(413,45)"/>
<path d="M0 0 C10.29411765 0 10.29411765 0 15 4 C16.53214888 7.06429776 16.22938548 9.6165642 16 13 C14.34860695 16.5386994 13.28394771 17.81070153 10 20 C6.7 20 3.4 20 0 20 C0 13.4 0 6.8 0 0 Z " fill="#101010" transform="translate(344,45)"/>
<path d="M0 0 C3.3 0 6.6 0 10 0 C13 3 13 3 13.1875 6.1875 C13.125625 7.115625 13.06375 8.04375 13 9 C11.02 9.99 11.02 9.99 9 11 C9.3609375 11.48210938 9.721875 11.96421875 10.09375 12.4609375 C10.5578125 13.09257813 11.021875 13.72421875 11.5 14.375 C11.9640625 15.00148438 12.428125 15.62796875 12.90625 16.2734375 C14 18 14 18 14 20 C11.75 19.875 11.75 19.875 9 19 C6.6875 15.9375 6.6875 15.9375 5 13 C4.67 15.31 4.34 17.62 4 20 C2.68 20 1.36 20 0 20 C0 13.4 0 6.8 0 0 Z " fill="#131313" transform="translate(452,45)"/>
<path d="M0 0 C12.38827416 -0.7543604 12.38827416 -0.7543604 16.078125 0.97265625 C17.4375 2.25 17.4375 2.25 19 5 C19.08594406 7.83615414 18.10109833 8.86805811 16.38671875 11.10546875 C13.09549655 13.71797737 10.89331444 13.40345609 6.75 13.25 C5.48671875 13.21390625 4.2234375 13.1778125 2.921875 13.140625 C1.47554687 13.07101563 1.47554687 13.07101563 0 13 C0 11.35 0 9.7 0 8 C3.96 8 7.92 8 12 8 C12 6.68 12 5.36 12 4 C8.04 4 4.08 4 0 4 C0 2.68 0 1.36 0 0 Z " fill="#E6EFF9" transform="translate(579,49)"/>
<path d="M0 0 C3.63 0 7.26 0 11 0 C11 1.32 11 2.64 11 4 C8.69 4 6.38 4 4 4 C4 5.32 4 6.64 4 8 C6.31 8 8.62 8 11 8 C11 8.99 11 9.98 11 11 C8.69 11 6.38 11 4 11 C4 12.65 4 14.3 4 16 C6.31 16 8.62 16 11 16 C11 17.32 11 18.64 11 20 C7.37 20 3.74 20 0 20 C0 13.4 0 6.8 0 0 Z " fill="#101010" transform="translate(439,45)"/>
<path d="M0 0 C0.33 1.32 0.66 2.64 1 4 C-0.98 4 -2.96 4 -5 4 C-4.67 4.99 -4.34 5.98 -4 7 C-2.515 7.6496875 -2.515 7.6496875 -1 8.3125 C2 10 2 10 3.125 12.9375 C3 16 3 16 1.5 18.375 C-1.90050198 20.58532629 -4.02258059 20.57853373 -8 20 C-9.9375 18 -9.9375 18 -11 16 C-10.01 15.34 -9.02 14.68 -8 14 C-7.34 14.66 -6.68 15.32 -6 16 C-5.01 16 -4.02 16 -3 16 C-3 14.68 -3 13.36 -3 12 C-3.969375 11.525625 -4.93875 11.05125 -5.9375 10.5625 C-9 9 -9 9 -10 8 C-9.6875 4.5 -9.6875 4.5 -9 1 C-6.04335481 -0.4783226 -3.25770263 -0.06032783 0 0 Z " fill="#141414" transform="translate(378,45)"/>
<path d="M0 0 C1.32 0 2.64 0 4 0 C5.65 3.96 7.3 7.92 9 12 C10.65 8.04 12.3 4.08 14 0 C15.32 0 16.64 0 18 0 C15.94235079 6.45353615 13.57616518 12.7361263 11 19 C9.68 19 8.36 19 7 19 C5.82905995 16.2100561 4.66309073 13.41821403 3.5 10.625 C2.99919922 9.43390625 2.99919922 9.43390625 2.48828125 8.21875 C2.17246094 7.45820312 1.85664063 6.69765625 1.53125 5.9140625 C1.23798828 5.2123291 0.94472656 4.5105957 0.64257812 3.78759766 C0 2 0 2 0 0 Z " fill="#0F0F0F" transform="translate(419,45)"/>
<path d="M0 0 C0.33 1.65 0.66 3.3 1 5 C-0.27875 4.95875 -1.5575 4.9175 -2.875 4.875 C-5.01871492 4.75787127 -5.01871492 4.75787127 -7 5 C-9.29827312 6.87938172 -9.29827312 6.87938172 -9.3125 9.9375 C-9.20931345 12.91651868 -9.20931345 12.91651868 -7.9375 14.9375 C-4.87530347 16.61676907 -2.30629059 15.68621125 1 15 C0.67 16.65 0.34 18.3 0 20 C-7.20800421 20.48867825 -7.20800421 20.48867825 -10.9375 18.1875 C-13.61777392 15.34478523 -13.95437565 13.49274294 -14.3125 9.625 C-13.94884973 5.40665686 -12.95115008 3.95115008 -10 1 C-6.78548731 -0.60725635 -3.56387464 -0.05748185 0 0 Z " fill="#111111" transform="translate(396,45)"/>
<path d="M0 0 C0.33 0 0.66 0 1 0 C1.50546036 2.08201528 2.00416835 4.16567067 2.5 6.25 C2.7784375 7.41015625 3.056875 8.5703125 3.34375 9.765625 C4 13 4 13 4 17 C0.7 17 -2.6 17 -6 17 C-4.31108451 11.12900806 -2.53630629 5.55571853 0 0 Z " fill="#E8EBFA" transform="translate(300,42)"/>
<path d="M0 0 C5 1 5 1 6.8125 2.1875 C8.58260835 4.88924432 8.39415803 6.84673574 8 10 C6.8125 11.875 6.8125 11.875 5 13 C3.35 13 1.7 13 0 13 C0 8.71 0 4.42 0 0 Z " fill="#F6F6F6" transform="translate(348,48)"/>
<path d="M0 0 C0.66 0 1.32 0 2 0 C2 3.96 2 7.92 2 12 C-1.375 12.625 -1.375 12.625 -5 13 C-5.66 12.34 -6.32 11.68 -7 11 C-6.625 7.375 -6.625 7.375 -6 4 C-4.02 4 -2.04 4 0 4 C0 2.68 0 1.36 0 0 Z " fill="#3A3A3A" transform="translate(130,82)"/>
<path d="M0 0 C1.32 0 2.64 0 4 0 C4 6.6 4 13.2 4 20 C2.68 20 1.36 20 0 20 C0 13.4 0 6.8 0 0 Z " fill="#1B1B1B" transform="translate(362,45)"/>
<path d="M0 0 C0 2.97 0 5.94 0 9 C-3.375 9.125 -3.375 9.125 -7 9 C-9 7 -9 7 -9.3125 4.5625 C-9 2 -9 2 -7.875 0.125 C-5.07848948 -1.55290631 -3.06309468 -0.74875648 0 0 Z " fill="#222222" transform="translate(114,86)"/>
<path d="M0 0 C2.05078125 0.03255208 4.1015625 0.06510417 6.15234375 0.09765625 C6.15234375 3.06765625 6.15234375 6.03765625 6.15234375 9.09765625 C2.77734375 9.22265625 2.77734375 9.22265625 -0.84765625 9.09765625 C-2.84765625 7.09765625 -2.84765625 7.09765625 -3.03515625 4.03515625 C-2.78699548 0.1473042 -2.78699548 0.1473042 0 0 Z " fill="#2C2C2C" transform="translate(52.84765625,85.90234375)"/>
<path d="M0 0 C2.14576637 -0.02685938 4.29162645 -0.04633088 6.4375 -0.0625 C7.63246094 -0.07410156 8.82742187 -0.08570312 10.05859375 -0.09765625 C13 0 13 0 14 1 C14.14115161 3.67058851 14.04247107 6.32432238 14 9 C13.34 9 12.68 9 12 9 C12 6.69 12 4.38 12 2 C10.68 2 9.36 2 8 2 C8 4.31 8 6.62 8 9 C7.34 9 6.68 9 6 9 C6 6.69 6 4.38 6 2 C4.68 2 3.36 2 2 2 C2 4.31 2 6.62 2 9 C1.34 9 0.68 9 0 9 C0 6.03 0 3.06 0 0 Z " fill="#2F2F2F" transform="translate(34,86)"/>
<path d="M0 0 C1.67542976 0.28604898 3.34385343 0.61781233 5 1 C5 3.66666667 5 6.33333333 5 9 C4 10 4 10 1.4375 10.0625 C0.633125 10.041875 -0.17125 10.02125 -1 10 C-1.33 9.34 -1.66 8.68 -2 8 C-0.35 8 1.3 8 3 8 C3 7.34 3 6.68 3 6 C1.35 5.67 -0.3 5.34 -2 5 C-1.125 1.125 -1.125 1.125 0 0 Z " fill="#4C4C4C" transform="translate(63,85)"/>
<path d="M0 0 C0.99 0.33 1.98 0.66 3 1 C2.01 1.99 1.02 2.98 0 4 C1.32 4 2.64 4 4 4 C4 3.01 4 2.02 4 1 C4.66 1 5.32 1 6 1 C6 2.32 6 3.64 6 5 C4.02 5 2.04 5 0 5 C0 5.66 0 6.32 0 7 C1.98 7 3.96 7 6 7 C5.67 7.66 5.34 8.32 5 9 C2.625 9.125 2.625 9.125 0 9 C-2 7 -2 7 -2.125 3.875 C-2.08375 2.92625 -2.0425 1.9775 -2 1 C-1.34 0.67 -0.68 0.34 0 0 Z " fill="#1F1F1F" transform="translate(81,86)"/>
<path d="M0 0 C0.66 0 1.32 0 2 0 C2 0.99 2 1.98 2 3 C2.99 3 3.98 3 5 3 C5 3.66 5 4.32 5 5 C4.01 5 3.02 5 2 5 C2 6.65 2 8.3 2 10 C2.99 10 3.98 10 5 10 C5 10.66 5 11.32 5 12 C3.35 11.67 1.7 11.34 0 11 C0 9.02 0 7.04 0 5 C-0.66 5 -1.32 5 -2 5 C-2 4.34 -2 3.68 -2 3 C-1.34 3 -0.68 3 0 3 C0 2.01 0 1.02 0 0 Z " fill="#181919" transform="translate(72,83)"/>
<path d="M0 0 C0.33 0 0.66 0 1 0 C1 3.63 1 7.26 1 11 C-2.375 11.625 -2.375 11.625 -6 12 C-6.66 11.34 -7.32 10.68 -8 10 C-7.67 9.01 -7.34 8.02 -7 7 C-6.34 7.66 -5.68 8.32 -5 9 C-4.01 9 -3.02 9 -2 9 C-2 7.35 -2 5.7 -2 4 C-1.34 4 -0.68 4 0 4 C0 2.68 0 1.36 0 0 Z " fill="#1D1D1E" transform="translate(131,83)"/>
<path d="M0 0 C1.98 0 3.96 0 6 0 C6 0.66 6 1.32 6 2 C4.68 2.33 3.36 2.66 2 3 C2 3.99 2 4.98 2 6 C3.65 6.33 5.3 6.66 7 7 C6.67 7.66 6.34 8.32 6 9 C3.625 9.125 3.625 9.125 1 9 C0.34 8.34 -0.32 7.68 -1 7 C-0.625 3.375 -0.625 3.375 0 0 Z " fill="#262626" transform="translate(97,86)"/>
<path d="M0 0 C2 2 2 2 2 6 C0.02 6.33 -1.96 6.66 -4 7 C-4.33 5.68 -4.66 4.36 -5 3 C-3.35 2.67 -1.7 2.34 0 2 C0 1.34 0 0.68 0 0 Z " fill="#DDDDDD" transform="translate(103,86)"/>
<path d="M0 0 C2.46278801 2.46278801 2.99771255 4.70676982 4 8 C1.69 8 -0.62 8 -3 8 C-2.45276317 4.62537285 -1.9451 2.91765 0 0 Z " fill="#ECF3FA" transform="translate(525,49)"/>
<path d="M0 0 C0.66 0.66 1.32 1.32 2 2 C1.625 5.625 1.625 5.625 1 9 C0.67 8.34 0.34 7.68 0 7 C-0.99 7 -1.98 7 -3 7 C-3 5.35 -3 3.7 -3 2 C-2.01 2 -1.02 2 0 2 C0 1.34 0 0.68 0 0 Z " fill="#D5D5D5" transform="translate(77,86)"/>
<path d="M0 0 C1.98 0 3.96 0 6 0 C6 0.66 6 1.32 6 2 C5.01 2.33 4.02 2.66 3 3 C2.67 4.98 2.34 6.96 2 9 C1.34 9 0.68 9 0 9 C0 6.03 0 3.06 0 0 Z " fill="#363737" transform="translate(89,86)"/>
<path d="M0 0 C2.475 0.495 2.475 0.495 5 1 C4.67 2.65 4.34 4.3 4 6 C2.68 6 1.36 6 0 6 C0 4.02 0 2.04 0 0 Z " fill="#D9D9D9" transform="translate(456,48)"/>
<path d="M0 0 C4.58335976 1.99787477 6.08881182 4.47350169 8 9 C7.01 9.33 6.02 9.66 5 10 C4.6596875 8.88625 4.6596875 8.88625 4.3125 7.75 C2.75592468 4.48860409 0.91481146 3.07105025 -2 1 C-1.34 0.67 -0.68 0.34 0 0 Z " fill="#DFDFDF" transform="translate(472,6)"/>
<path d="M0 0 C4.58335976 1.99787477 6.08881182 4.47350169 8 9 C7.01 9.33 6.02 9.66 5 10 C4.6596875 8.88625 4.6596875 8.88625 4.3125 7.75 C2.75592468 4.48860409 0.91481146 3.07105025 -2 1 C-1.34 0.67 -0.68 0.34 0 0 Z " fill="#DFDFDF" transform="translate(152,6)"/>
<path d="M0 0 C1.65 0 3.3 0 5 0 C5 0.66 5 1.32 5 2 C4.01 2 3.02 2 2 2 C2 4.31 2 6.62 2 9 C1.34 9 0.68 9 0 9 C0 6.03 0 3.06 0 0 Z " fill="#2A2A2A" transform="translate(117,86)"/>
<path d="M0 0 C0.99 0 1.98 0 3 0 C3 2.64 3 5.28 3 8 C1.02 8 -0.96 8 -3 8 C-2.2575 7.4121875 -2.2575 7.4121875 -1.5 6.8125 C0.45593143 4.44908285 0.24207973 2.98564997 0 0 Z " fill="#181818" transform="translate(56,87)"/>
<path d="M0 0 C1.65 0 3.3 0 5 0 C4.67 1.65 4.34 3.3 4 5 C2.68 4.67 1.36 4.34 0 4 C0 2.68 0 1.36 0 0 Z " fill="#D9D9D9" transform="translate(107,88)"/>
<path d="M0 0 C1.65 0 3.3 0 5 0 C4.67 1.65 4.34 3.3 4 5 C2.68 4.67 1.36 4.34 0 4 C0 2.68 0 1.36 0 0 Z " fill="#D9D9D9" transform="translate(52,88)"/>
<path d="M0 0 C1.65 0.33 3.3 0.66 5 1 C4.34 2.32 3.68 3.64 3 5 C1.35 5 -0.3 5 -2 5 C-2.33 4.34 -2.66 3.68 -3 3 C-1.35 3 0.3 3 2 3 C2 2.34 2 1.68 2 1 C1.34 0.67 0.68 0.34 0 0 Z " fill="#1F1F1F" transform="translate(64,90)"/>
<path d="M0 0 C1.98 0.495 1.98 0.495 4 1 C3.67 2.32 3.34 3.64 3 5 C1.68 4.67 0.36 4.34 -1 4 C-0.67 2.68 -0.34 1.36 0 0 Z " fill="#EBEBEB" transform="translate(126,88)"/>
<path d="M0 0 C2.475 0.495 2.475 0.495 5 1 C5 3.64 5 6.28 5 9 C4.34 9 3.68 9 3 9 C2.87625 7.88625 2.7525 6.7725 2.625 5.625 C2.3534187 1.96896323 2.3534187 1.96896323 0 0 Z " fill="#0B0C0B" transform="translate(43,86)"/>
<path d="M0 0 C0.33 1.32 0.66 2.64 1 4 C-2.625 7 -2.625 7 -6 7 C-6 6.34 -6 5.68 -6 5 C-4.34467377 3.98133771 -2.67739862 2.98189187 -1 2 C-0.67 1.34 -0.34 0.68 0 0 Z " fill="#CCD2D9" transform="translate(638,97)"/>
<path d="M0 0 C0.66 1.32 1.32 2.64 2 4 C1.34 4.66 0.68 5.32 0 6 C-3.125 5.625 -3.125 5.625 -6 5 C-6 4.34 -6 3.68 -6 3 C-4.02 3 -2.04 3 0 3 C0 2.01 0 1.02 0 0 Z " fill="#C7C7C7" transform="translate(87,88)"/>
</svg>
