<?xml version="1.0" encoding="UTF-8"?>
<!DOCTYPE svg PUBLIC "-//W3C//DTD SVG 1.1//EN" "http://www.w3.org/Graphics/SVG/1.1/DTD/svg11.dtd">
<svg xmlns="http://www.w3.org/2000/svg" version="1.1" width="570px" height="158px" style="shape-rendering:geometricPrecision; text-rendering:geometricPrecision; image-rendering:optimizeQuality; fill-rule:evenodd; clip-rule:evenodd" xmlns:xlink="http://www.w3.org/1999/xlink">
<g><path style="opacity:0.391" fill="#909090" d="M 201.5,19.5 C 205.49,18.6155 208.323,19.9489 210,23.5C 212.571,22.7547 215.071,22.4213 217.5,22.5C 218.584,23.6651 219.417,24.9984 220,26.5C 220.49,25.2068 220.657,23.8734 220.5,22.5C 221.5,22.5 222.5,22.5 223.5,22.5C 223.678,26.1021 224.678,26.1021 226.5,22.5C 228.343,22.7552 230.343,22.9219 232.5,23C 233,23.5 233.5,24 234,24.5C 234.674,23.4216 235.674,22.7549 237,22.5C 239.189,23.6879 241.356,23.6879 243.5,22.5C 245.425,22.5904 246.592,23.5904 247,25.5C 247.589,23.1367 249.089,22.1367 251.5,22.5C 251.5,21.5 251.5,20.5 251.5,19.5C 252.5,19.5 253.5,19.5 254.5,19.5C 254.5,23.1667 254.5,26.8333 254.5,30.5C 251.33,32.331 248.83,31.6643 247,28.5C 244.809,31.4822 242.476,31.8155 240,29.5C 238.577,23.0974 237.743,23.4308 237.5,30.5C 236.178,30.67 235.011,30.3366 234,29.5C 229.911,31.9496 227.577,30.6163 227,25.5C 226.846,28.5246 225.346,30.1913 222.5,30.5C 222.167,26.5 221.833,26.5 221.5,30.5C 218.654,30.1913 217.154,28.5246 217,25.5C 216.423,30.6163 214.089,31.9496 210,29.5C 209.667,27.8333 209.333,26.1667 209,24.5C 207.826,26.6709 205.993,27.6709 203.5,27.5C 203.719,28.675 203.386,29.675 202.5,30.5C 201.511,26.8927 201.177,23.226 201.5,19.5 Z M 203.5,21.5 C 208.833,22.5 208.833,23.5 203.5,24.5C 203.5,23.5 203.5,22.5 203.5,21.5 Z M 212.5,24.5 C 214.176,25.1834 214.843,26.5168 214.5,28.5C 213.5,28.5 212.5,28.5 211.5,28.5C 211.433,27.0413 211.766,25.7079 212.5,24.5 Z M 249.5,24.5 C 250.586,24.62 251.253,25.2867 251.5,26.5C 251.167,27.1667 250.833,27.8333 250.5,28.5C 249.571,27.3112 249.238,25.9778 249.5,24.5 Z"/></g>
<g><path style="opacity:0.428" fill="#909190" d="M 258.5,19.5 C 260.048,19.8212 260.715,20.8212 260.5,22.5C 262.451,22.2267 263.951,22.8934 265,24.5C 265.308,23.6919 265.808,23.0253 266.5,22.5C 267.806,23.9122 268.64,25.5789 269,27.5C 269.098,25.3807 269.931,23.714 271.5,22.5C 271.688,25.885 270.854,29.2184 269,32.5C 267.506,33.7472 266.006,33.7472 264.5,32.5C 265.325,31.6143 266.325,31.281 267.5,31.5C 267.313,29.4357 266.813,27.4357 266,25.5C 265.439,30.3526 262.939,32.0193 258.5,30.5C 258.5,26.8333 258.5,23.1667 258.5,19.5 Z M 260.5,24.5 C 261.5,24.5 262.5,24.5 263.5,24.5C 263.5,25.8333 263.5,27.1667 263.5,28.5C 262.5,28.5 261.5,28.5 260.5,28.5C 260.5,27.1667 260.5,25.8333 260.5,24.5 Z"/></g>
<g><path style="opacity:0.733" fill="#12407a" d="M 282.5,82.5 C 278.899,83.349 275.232,84.0157 271.5,84.5C 267.774,84.8226 264.107,84.4892 260.5,83.5C 262.412,81.3428 264.079,79.0094 265.5,76.5C 265.291,75.914 264.957,75.414 264.5,75C 258.482,74.3583 252.482,74.5249 246.5,75.5C 238.555,74.8886 234.222,70.5553 233.5,62.5C 229.981,63.9322 226.314,64.7655 222.5,65C 221.029,68.3209 220.363,71.8209 220.5,75.5C 214.622,74.2794 208.789,74.2794 203,75.5C 203.363,66.0671 205.196,56.9005 208.5,48C 208.043,47.586 207.709,47.086 207.5,46.5C 208.71,42.2056 209.71,37.8723 210.5,33.5C 218.174,33.3336 225.841,33.5003 233.5,34C 235.246,34.4709 236.913,35.1376 238.5,36C 241.401,38.1791 243.567,40.3458 245,42.5C 251.514,39.8674 258.014,39.8674 264.5,42.5C 270.808,41.2065 277.141,41.2065 283.5,42.5C 284.154,44.1151 284.654,45.7818 285,47.5C 285.792,45.4127 286.959,43.5793 288.5,42C 292.5,41.6667 296.5,41.3333 300.5,41C 299.864,38.6062 299.864,36.1062 300.5,33.5C 309.568,33.1187 318.568,33.6187 327.5,35C 330.672,37.0064 333.338,39.5064 335.5,42.5C 343.985,39.1295 351.818,40.1295 359,45.5C 360.888,41.004 362.055,36.3374 362.5,31.5C 368.5,31.5 374.5,31.5 380.5,31.5C 379.577,40.0393 377.577,48.5393 374.5,57C 375.022,57.5613 375.355,58.228 375.5,59C 374.29,64.5136 372.624,69.8469 370.5,75C 357.893,74.472 345.226,74.472 332.5,75C 326.266,73.1306 323.933,69.1306 325.5,63C 325,62.8333 324.5,62.6667 324,62.5C 320.227,63.7295 316.394,64.7295 312.5,65.5C 312.144,68.6593 311.477,71.9927 310.5,75.5C 304.819,74.267 299.152,74.267 293.5,75.5C 292.593,72.5917 292.927,69.7583 294.5,67C 293.874,66.2496 293.374,65.4162 293,64.5C 289.677,70.6439 286.177,76.6439 282.5,82.5 Z M 268.5,61.5 C 271.729,66.8882 270.729,71.0548 265.5,74C 267.361,70.0556 268.361,65.8889 268.5,61.5 Z"/></g>
<g><path style="opacity:0.082" fill="#909190" d="M 253.5,35.5 C 255.628,34.3709 257.961,34.2042 260.5,35C 258.19,35.4966 255.857,35.6633 253.5,35.5 Z"/></g>
<g><path style="opacity:1" fill="#f4f5f8" d="M 365.5,35.5 C 368.833,35.5 372.167,35.5 375.5,35.5C 373.275,47.1812 370.942,58.8479 368.5,70.5C 365.167,70.5 361.833,70.5 358.5,70.5C 360.676,58.7977 363.009,47.131 365.5,35.5 Z"/></g>
<g><path style="opacity:1" fill="#f0f2f6" d="M 214.5,37.5 C 220.842,37.3338 227.175,37.5005 233.5,38C 240.398,40.8232 242.231,45.6566 239,52.5C 237.01,56.4905 233.843,58.9905 229.5,60C 225.848,60.4986 222.182,60.6653 218.5,60.5C 218.406,64.1358 217.739,67.6358 216.5,71C 213.118,71.8236 209.784,71.657 206.5,70.5C 209.063,59.4448 211.729,48.4448 214.5,37.5 Z"/></g>
<g><path style="opacity:1" fill="#f3f4f8" d="M 304.5,37.5 C 310.842,37.3338 317.175,37.5005 323.5,38C 330.948,41.7177 332.448,47.2177 328,54.5C 322.904,59.457 316.738,61.7903 309.5,61.5C 308.358,64.3992 307.692,67.3992 307.5,70.5C 304.167,70.5 300.833,70.5 297.5,70.5C 299.623,59.4631 301.956,48.4631 304.5,37.5 Z"/></g>
<g><path style="opacity:0.913" fill="#cbcccb" d="M 27.5,41.5 C 86.5038,41.1667 145.504,41.5 204.5,42.5C 148.17,43.3333 91.8363,43.8333 35.5,44C 24.1209,45.1031 16.2875,50.9365 12,61.5C 10.4255,80.7994 10.0922,100.133 11,119.5C 12.4551,134.289 20.6218,142.455 35.5,144C 201.529,144.992 367.529,144.658 533.5,143C 544.883,139.283 551.049,131.449 552,119.5C 552.667,102.5 552.667,85.5 552,68.5C 550.483,53.6499 542.317,45.4833 527.5,44C 479.83,43.8333 432.163,43.3333 384.5,42.5C 409.833,42.1667 435.167,41.8333 460.5,41.5C 486.894,41.3463 513.227,41.8463 539.5,43C 546.909,46.739 551.743,52.5723 554,60.5C 554.667,82.8333 554.667,105.167 554,127.5C 551.167,137 545,143.167 535.5,146C 366.167,146.667 196.833,146.667 27.5,146C 19.1841,143.687 13.3508,138.52 10,130.5C 8.86267,118.234 8.36267,105.9 8.5,93.5C 8.36267,81.0997 8.86267,68.7664 10,56.5C 13.9124,49.0754 19.7457,44.0754 27.5,41.5 Z M 268.5,61.5 C 268.361,65.8889 267.361,70.0556 265.5,74C 270.729,71.0548 271.729,66.8882 268.5,61.5 Z"/></g>
<g><path style="opacity:1" fill="#f0f2f6" d="M 248.5,44.5 C 252.846,44.3343 257.179,44.501 261.5,45C 266.143,47.0724 267.643,50.5724 266,55.5C 265.025,60.7462 263.859,65.9128 262.5,71C 261,71.1667 259.5,71.3333 258,71.5C 256.019,71.3708 254.353,70.7042 253,69.5C 243.747,74.1956 239.08,71.529 239,61.5C 239.785,59.714 240.951,58.214 242.5,57C 247.324,55.1813 252.324,54.0146 257.5,53.5C 257.291,52.914 256.957,52.414 256.5,52C 252.577,51.2073 248.744,51.374 245,52.5C 243.58,48.4387 244.746,45.772 248.5,44.5 Z"/></g>
<g><path style="opacity:1" fill="#f3f4f8" d="M 339.5,44.5 C 343.514,44.3345 347.514,44.5012 351.5,45C 353.624,46.1217 355.457,47.6217 357,49.5C 356.059,56.4804 354.892,63.4804 353.5,70.5C 349.97,71.0111 346.804,70.3444 344,68.5C 339.231,72.3355 334.564,72.3355 330,68.5C 327.974,61.3779 330.474,56.8779 337.5,55C 340.817,54.5017 344.15,54.335 347.5,54.5C 347.5,53.5 347.5,52.5 347.5,51.5C 343.233,51.203 339.066,51.5363 335,52.5C 333.348,47.7813 334.848,45.1147 339.5,44.5 Z"/></g>
<g><path style="opacity:1" fill="#f6f7f9" d="M 271.5,45.5 C 274.5,45.5 277.5,45.5 280.5,45.5C 281.149,50.1358 281.649,54.8024 282,59.5C 284.958,55.0843 287.792,50.5843 290.5,46C 293.833,45.3333 297.167,45.3333 300.5,46C 293.542,56.749 286.708,67.5823 280,78.5C 278.178,80.0454 276.011,80.712 273.5,80.5C 271.833,80.1667 270.167,79.8333 268.5,79.5C 271.159,76.3458 273.159,72.8458 274.5,69C 273.444,61.1661 272.444,53.3328 271.5,45.5 Z"/></g>
<g><path style="opacity:1" fill="#173f7a" d="M 222.5,44.5 C 230.611,43.8989 232.278,46.7322 227.5,53C 225.098,53.8141 222.765,53.6474 220.5,52.5C 221.482,49.9044 222.149,47.2377 222.5,44.5 Z"/></g>
<g><path style="opacity:1" fill="#183f7a" d="M 312.5,44.5 C 320.928,43.5456 322.595,46.3789 317.5,53C 315.527,53.4955 313.527,53.6621 311.5,53.5C 311.508,50.4552 311.841,47.4552 312.5,44.5 Z"/></g>
<g><path style="opacity:1" fill="#133a76" d="M 339.5,60.5 C 341.5,60.5 343.5,60.5 345.5,60.5C 345.2,64.9764 343.033,66.3097 339,64.5C 338.421,63.0715 338.588,61.7382 339.5,60.5 Z"/></g>
<g><path style="opacity:1" fill="#163976" d="M 249.5,60.5 C 251.5,60.5 253.5,60.5 255.5,60.5C 255.185,64.8004 252.851,66.467 248.5,65.5C 248.366,63.7085 248.699,62.0418 249.5,60.5 Z"/></g>
<g><path style="opacity:1" fill="#f2f7fb" d="M 457.5,80.5 C 475.167,80.5 492.833,80.5 510.5,80.5C 510.5,98.1667 510.5,115.833 510.5,133.5C 492.833,133.5 475.167,133.5 457.5,133.5C 457.5,115.833 457.5,98.1667 457.5,80.5 Z"/></g>
<g><path style="opacity:0.988" fill="#c90404" d="M 301.5,129.5 C 302.29,128.206 303.29,127.039 304.5,126C 302.423,125.808 300.423,125.308 298.5,124.5C 301.107,123.682 303.774,123.182 306.5,123C 307.337,121.989 307.67,120.822 307.5,119.5C 303.486,119.666 299.486,119.499 295.5,119C 294.944,118.617 294.611,118.117 294.5,117.5C 299.944,118.108 304.944,117.442 309.5,115.5C 311.796,113.782 312.129,111.615 310.5,109C 310.95,107.715 311.617,106.548 312.5,105.5C 312.043,104.702 311.376,104.369 310.5,104.5C 305.36,103.512 300.026,103.179 294.5,103.5C 294.5,102.5 294.5,101.5 294.5,100.5C 299.214,100.827 303.88,100.493 308.5,99.5C 308.291,98.914 307.957,98.414 307.5,98C 293.824,97.1656 293.49,96.1656 306.5,95C 304.641,93.0186 302.308,92.0186 299.5,92C 300.823,91.1841 301.489,90.0174 301.5,88.5C 319.788,77.4534 334.288,81.1201 345,99.5C 349.196,115.271 344.029,126.771 329.5,134C 319.326,137.141 309.993,135.641 301.5,129.5 Z"/></g>
<g><path style="opacity:0.994" fill="#1c63c4" d="M 282.5,82.5 C 289.782,81.7062 296.116,83.7062 301.5,88.5C 301.489,90.0174 300.823,91.1841 299.5,92C 302.308,92.0186 304.641,93.0186 306.5,95C 293.49,96.1656 293.824,97.1656 307.5,98C 307.957,98.414 308.291,98.914 308.5,99.5C 303.88,100.493 299.214,100.827 294.5,100.5C 294.5,101.5 294.5,102.5 294.5,103.5C 300.026,103.179 305.36,103.512 310.5,104.5C 304.73,104.569 303.397,106.903 306.5,111.5C 305.432,112.434 304.099,112.768 302.5,112.5C 300.365,113.966 298.365,113.8 296.5,112C 298.764,111.764 300.931,111.264 303,110.5C 303.664,105.504 301.498,103.67 296.5,105C 295.29,106.039 294.29,107.206 293.5,108.5C 293.167,108.5 292.833,108.5 292.5,108.5C 292.67,107.178 292.337,106.011 291.5,105C 288.331,104.003 285.664,104.67 283.5,107C 290.503,107.497 290.837,108.163 284.5,109C 282.398,110.733 282.065,112.733 283.5,115C 286.146,115.497 288.813,115.664 291.5,115.5C 291.5,114.5 291.5,113.5 291.5,112.5C 292.89,113.899 293.89,115.566 294.5,117.5C 294.611,118.117 294.944,118.617 295.5,119C 299.486,119.499 303.486,119.666 307.5,119.5C 307.67,120.822 307.337,121.989 306.5,123C 303.774,123.182 301.107,123.682 298.5,124.5C 300.423,125.308 302.423,125.808 304.5,126C 303.29,127.039 302.29,128.206 301.5,129.5C 294.147,135.175 285.813,137.008 276.5,135C 261.076,128.988 254.909,117.821 258,101.5C 260.619,94.2231 265.119,88.5565 271.5,84.5C 275.232,84.0157 278.899,83.349 282.5,82.5 Z"/></g>
<g><path style="opacity:1" fill="#f1f2f2" d="M 370.5,82.5 C 391.5,82.5 412.5,82.5 433.5,82.5C 433.667,97.837 433.5,113.17 433,128.5C 431.542,130.96 429.709,133.127 427.5,135C 406.169,135.5 384.836,135.667 363.5,135.5C 363.333,120.83 363.5,106.163 364,91.5C 364.873,87.4754 367.039,84.4754 370.5,82.5 Z"/></g>
<g><path style="opacity:1" fill="#127dc2" d="M 505.5,108.5 C 494.073,108.712 482.74,108.712 471.5,108.5C 471.5,111.167 471.5,113.833 471.5,116.5C 474.927,116.024 478.26,116.024 481.5,116.5C 482.672,116.081 483.672,115.415 484.5,114.5C 491.287,116.412 498.287,117.078 505.5,116.5C 505.5,120.5 505.5,124.5 505.5,128.5C 491.167,128.5 476.833,128.5 462.5,128.5C 462.17,121.468 462.503,114.468 463.5,107.5C 466.715,107.18 470.048,107.18 473.5,107.5C 481.347,107.382 489.013,107.382 496.5,107.5C 498.833,107.5 501.167,107.5 503.5,107.5C 503.5,105.167 503.5,102.833 503.5,100.5C 489.765,100.38 476.265,100.714 463,101.5C 462.501,96.1771 462.334,90.8437 462.5,85.5C 476.833,85.5 491.167,85.5 505.5,85.5C 505.5,93.1667 505.5,100.833 505.5,108.5 Z"/></g>
<g><path style="opacity:1" fill="#289237" d="M 423.5,86.5 C 424.718,91.8768 424.718,96.8768 423.5,101.5C 419.167,101.5 414.833,101.5 410.5,101.5C 408.169,90.5055 412.503,85.5055 423.5,86.5 Z"/></g>
<g><path style="opacity:1" fill="#164b96" d="M 372.5,86.5 C 377.5,86.5 382.5,86.5 387.5,86.5C 387.667,99.8375 387.5,113.171 387,126.5C 386.167,128.667 384.667,130.167 382.5,131C 377.845,131.499 373.179,131.666 368.5,131.5C 368.5,126.5 368.5,121.5 368.5,116.5C 373.628,116.888 378.628,116.388 383.5,115C 384,114.5 384.5,114 385,113.5C 385.499,109.514 385.666,105.514 385.5,101.5C 383.167,101.5 380.833,101.5 378.5,101.5C 378.824,105.555 378.491,109.555 377.5,113.5C 374.467,114.927 371.634,114.594 369,112.5C 368.333,105.167 368.333,97.8333 369,90.5C 370.376,89.2949 371.542,87.9616 372.5,86.5 Z"/></g>
<g><path style="opacity:1" fill="#912032" d="M 401.5,86.5 C 401.082,87.2216 400.416,87.7216 399.5,88C 400.373,92.6164 400.707,97.1164 400.5,101.5C 396.743,101.071 393.243,101.737 390,103.5C 386.042,92.0468 389.876,86.3801 401.5,86.5 Z"/></g>
<g><path style="opacity:1" fill="#f5f4f6" d="M 55.5,82.5 C 83.5,82.5 111.5,82.5 139.5,82.5C 139.5,100.167 139.5,117.833 139.5,135.5C 111.5,135.5 83.5,135.5 55.5,135.5C 55.5,117.833 55.5,100.167 55.5,82.5 Z"/></g>
<g><path style="opacity:1" fill="#3c3f85" d="M 136.5,84.5 C 137.468,86.6074 137.802,88.9407 137.5,91.5C 110.661,91.8312 83.9948,91.4979 57.5,90.5C 83.8333,90.5 110.167,90.5 136.5,90.5C 136.5,88.5 136.5,86.5 136.5,84.5 Z"/></g>
<g><path style="opacity:1" fill="#10156a" d="M 136.5,84.5 C 136.5,86.5 136.5,88.5 136.5,90.5C 110.167,90.5 83.8333,90.5 57.5,90.5C 57.5,88.5 57.5,86.5 57.5,84.5C 83.8333,84.5 110.167,84.5 136.5,84.5 Z"/></g>
<g><path style="opacity:1" fill="#1e1d6f" d="M 118.5,99.5 C 120.833,99.5 123.167,99.5 125.5,99.5C 125.86,105.607 126.86,111.607 128.5,117.5C 126.955,118.452 125.288,118.785 123.5,118.5C 123.5,117.5 123.5,116.5 123.5,115.5C 118.858,115.918 114.525,116.751 110.5,118C 113.035,111.764 115.702,105.598 118.5,99.5 Z"/></g>
<g><path style="opacity:1" fill="#1e1c6f" d="M 101.5,99.5 C 104.898,99.1796 108.232,99.513 111.5,100.5C 111.167,101.167 110.833,101.833 110.5,102.5C 108.167,103.167 105.833,103.833 103.5,104.5C 105.091,106.633 107.091,108.299 109.5,109.5C 111.179,113.288 110.179,116.121 106.5,118C 103.183,118.498 99.8499,118.665 96.5,118.5C 96.5,117.167 96.5,115.833 96.5,114.5C 99.7216,114.892 102.722,114.392 105.5,113C 103.2,111.275 101.034,109.442 99,107.5C 98.0182,104.225 98.8515,101.559 101.5,99.5 Z"/></g>
<g><path style="opacity:1" fill="#dbdde0" d="M 268.5,102.5 C 270.5,102.5 272.5,102.5 274.5,102.5C 274.285,108.891 275.285,109.058 277.5,103C 279.134,102.506 280.801,102.34 282.5,102.5C 281.993,106.86 281.327,111.193 280.5,115.5C 279.5,115.5 278.5,115.5 277.5,115.5C 277.851,113.131 278.018,110.797 278,108.5C 276.589,110.65 275.755,112.984 275.5,115.5C 274.167,115.5 272.833,115.5 271.5,115.5C 271.607,104.978 270.773,104.978 269,115.5C 267.989,116.337 266.822,116.67 265.5,116.5C 266.074,111.714 267.074,107.048 268.5,102.5 Z"/></g>
<g><path style="opacity:1" fill="#e0d8d8" d="M 313.5,102.5 C 316.233,102.196 317.899,103.363 318.5,106C 317.171,107.66 316.171,109.493 315.5,111.5C 318.463,115.231 317.463,116.898 312.5,116.5C 312.54,111.807 312.873,107.141 313.5,102.5 Z"/></g>
<g><path style="opacity:1" fill="#e9e4e5" d="M 237.5,115.5 C 235.473,115.662 233.473,115.495 231.5,115C 230.887,112.853 230.221,110.686 229.5,108.5C 228.893,108.624 228.56,108.957 228.5,109.5C 227.952,111.626 227.285,113.626 226.5,115.5C 225.721,112.452 225.388,109.452 225.5,106.5C 227.546,105.035 229.38,105.368 231,107.5C 233.418,106.355 235.585,104.855 237.5,103C 238.635,102.251 239.635,102.417 240.5,103.5C 239.863,107.706 238.863,111.706 237.5,115.5 Z"/></g>
<g><path style="opacity:1" fill="#4fac39" d="M 423.5,86.5 C 425.5,86.5 427.5,86.5 429.5,86.5C 429.667,99.8375 429.5,113.171 429,126.5C 427.59,129.789 425.09,131.456 421.5,131.5C 421.274,126.438 421.608,121.438 422.5,116.5C 428.439,114.507 428.772,112.007 423.5,109C 427.482,106.309 427.482,103.809 423.5,101.5C 424.718,96.8768 424.718,91.8768 423.5,86.5 Z"/></g>
<g><path style="opacity:1" fill="#d7ccda" d="M 207.5,105.5 C 207.267,107.062 206.6,108.395 205.5,109.5C 204.833,111.5 204.167,113.5 203.5,115.5C 201.824,114.817 201.157,113.483 201.5,111.5C 199.396,111.201 197.396,111.534 195.5,112.5C 197.655,113.001 199.322,114.001 200.5,115.5C 197.124,116.605 194.124,116.605 191.5,115.5C 190.167,115.5 188.833,115.5 187.5,115.5C 188.244,111.881 188.577,108.215 188.5,104.5C 190.41,103.295 191.743,103.962 192.5,106.5C 190.661,108.527 190.161,110.86 191,113.5C 191.587,109.424 193.754,106.757 197.5,105.5C 198.994,105.709 200.161,106.376 201,107.5C 202.789,105.771 204.956,105.104 207.5,105.5 Z"/></g>
<g><path style="opacity:1" fill="#d4d9e4" d="M 292.5,108.5 C 292.167,109.833 291.833,111.167 291.5,112.5C 291.5,113.5 291.5,114.5 291.5,115.5C 288.813,115.664 286.146,115.497 283.5,115C 282.065,112.733 282.398,110.733 284.5,109C 290.837,108.163 290.503,107.497 283.5,107C 285.664,104.67 288.331,104.003 291.5,105C 292.337,106.011 292.67,107.178 292.5,108.5 Z"/></g>
<g><path style="opacity:1" fill="#d9dee4" d="M 302.5,112.5 C 302.5,113.5 302.5,114.5 302.5,115.5C 296.174,117.159 293.174,114.826 293.5,108.5C 294.29,107.206 295.29,106.039 296.5,105C 301.498,103.67 303.664,105.504 303,110.5C 300.931,111.264 298.764,111.764 296.5,112C 298.365,113.8 300.365,113.966 302.5,112.5 Z"/></g>
<g><path style="opacity:1" fill="#e6e1e5" d="M 310.5,104.5 C 311.376,104.369 312.043,104.702 312.5,105.5C 311.617,106.548 310.95,107.715 310.5,109C 312.129,111.615 311.796,113.782 309.5,115.5C 302.338,115.387 302.005,114.387 308.5,112.5C 308.043,111.702 307.376,111.369 306.5,111.5C 303.397,106.903 304.73,104.569 310.5,104.5 Z"/></g>
<g><path style="opacity:1" fill="#e8dcdb" d="M 320.5,104.5 C 322.331,105.052 323.997,105.052 325.5,104.5C 326.324,106.748 327.324,106.914 328.5,105C 333.501,103.33 336.501,104.996 337.5,110C 335.561,115.719 331.727,117.553 326,115.5C 325.814,113.1 325.314,110.766 324.5,108.5C 323.914,108.709 323.414,109.043 323,109.5C 322.505,111.473 322.338,113.473 322.5,115.5C 321.167,115.5 319.833,115.5 318.5,115.5C 318.659,111.709 319.325,108.042 320.5,104.5 Z"/></g>
<g><path style="opacity:1" fill="#3c9547" d="M 414.5,103.5 C 416.977,103.051 418.977,103.717 420.5,105.5C 418.977,107.283 416.977,107.949 414.5,107.5C 414.5,106.167 414.5,104.833 414.5,103.5 Z"/></g>
<g><path style="opacity:1" fill="#7eb2d9" d="M 496.5,107.5 C 489.013,107.382 481.347,107.382 473.5,107.5C 474.855,104.203 474.355,103.87 472,106.5C 470.983,103.972 469.816,103.972 468.5,106.5C 466.929,105.691 465.262,105.357 463.5,105.5C 463.723,101.375 465.223,100.709 468,103.5C 468.308,102.692 468.808,102.025 469.5,101.5C 471.286,103.922 472.952,103.922 474.5,101.5C 475.796,108.041 476.462,108.041 476.5,101.5C 477.5,101.5 478.5,101.5 479.5,101.5C 480.167,105.5 480.833,105.5 481.5,101.5C 484.681,101.742 487.681,101.742 490.5,101.5C 490.669,102.397 491.002,103.397 491.5,104.5C 493.401,100.622 495.234,100.622 497,104.5C 497.249,103.376 497.749,102.376 498.5,101.5C 499.5,102.833 500.5,102.833 501.5,101.5C 502.833,103.167 502.833,104.833 501.5,106.5C 500.522,106.023 499.689,105.357 499,104.5C 498.302,105.691 497.469,106.691 496.5,107.5 Z"/></g>
<g><path style="opacity:1" fill="#1e1d6f" d="M 91.5,99.5 C 93.1992,99.3398 94.8659,99.5065 96.5,100C 95.0078,106.115 93.6744,112.282 92.5,118.5C 90.712,118.785 89.0453,118.452 87.5,117.5C 88.8413,111.471 90.1746,105.471 91.5,99.5 Z"/></g>
<g><path style="opacity:1" fill="#e3e3ed" d="M 119.5,105.5 C 121.216,106.574 122.216,108.241 122.5,110.5C 121.167,111.833 119.833,111.833 118.5,110.5C 119.309,108.929 119.643,107.262 119.5,105.5 Z"/></g>
<g><path style="opacity:1" fill="#716e9f" d="M 207.5,105.5 C 207.833,105.5 208.167,105.5 208.5,105.5C 208.335,108.518 208.502,111.518 209,114.5C 210.622,115.099 212.122,115.766 213.5,116.5C 211.379,116.675 209.379,116.341 207.5,115.5C 207.125,113.302 206.458,111.302 205.5,109.5C 206.6,108.395 207.267,107.062 207.5,105.5 Z"/></g>
<g><path style="opacity:1" fill="#d0c8d6" d="M 216.5,105.5 C 214.901,105.232 213.568,105.566 212.5,106.5C 210.313,108.282 209.98,110.448 211.5,113C 213.906,113.779 215.573,112.946 216.5,110.5C 217.736,109.754 219.07,109.421 220.5,109.5C 221.376,109.631 222.043,109.298 222.5,108.5C 220.345,107.999 218.678,106.999 217.5,105.5C 220.059,105.198 222.393,105.532 224.5,106.5C 224.736,109.609 224.403,112.609 223.5,115.5C 220.058,116.351 216.724,116.685 213.5,116.5C 212.122,115.766 210.622,115.099 209,114.5C 208.502,111.518 208.335,108.518 208.5,105.5C 208.5,105.167 208.5,104.833 208.5,104.5C 210.913,102.949 213.579,102.283 216.5,102.5C 216.5,103.5 216.5,104.5 216.5,105.5 Z"/></g>
<g><path style="opacity:1" fill="#f79812" d="M 212.5,106.5 C 215.438,106.977 218.104,107.977 220.5,109.5C 219.07,109.421 217.736,109.754 216.5,110.5C 215.573,112.946 213.906,113.779 211.5,113C 209.98,110.448 210.313,108.282 212.5,106.5 Z"/></g>
<g><path style="opacity:1" fill="#684963" d="M 212.5,106.5 C 213.568,105.566 214.901,105.232 216.5,105.5C 216.833,105.5 217.167,105.5 217.5,105.5C 218.678,106.999 220.345,107.999 222.5,108.5C 222.043,109.298 221.376,109.631 220.5,109.5C 218.104,107.977 215.438,106.977 212.5,106.5 Z"/></g>
<g><path style="opacity:1" fill="#ee942a" d="M 233.5,108.5 C 234.649,108.791 235.316,109.624 235.5,111C 234.706,114.122 233.706,114.122 232.5,111C 232.743,110.098 233.077,109.265 233.5,108.5 Z"/></g>
<g><path style="opacity:1" fill="#b11a11" d="M 330.5,107.5 C 331.5,107.5 332.5,107.5 333.5,107.5C 333.753,109.827 333.086,111.827 331.5,113.5C 329.261,111.867 328.928,109.867 330.5,107.5 Z"/></g>
<g><path style="opacity:1" fill="#18862b" d="M 414.5,110.5 C 416.5,110.5 418.5,110.5 420.5,110.5C 420.5,111.5 420.5,112.5 420.5,113.5C 418.5,113.5 416.5,113.5 414.5,113.5C 414.5,112.5 414.5,111.5 414.5,110.5 Z"/></g>
<g><path style="opacity:1" fill="#8582af" d="M 224.5,106.5 C 224.833,106.5 225.167,106.5 225.5,106.5C 225.388,109.452 225.721,112.452 226.5,115.5C 225.5,116.833 224.5,116.833 223.5,115.5C 224.403,112.609 224.736,109.609 224.5,106.5 Z"/></g>
<g><path style="opacity:1" fill="#1c1c6f" d="M 66.5,100.5 C 69.3035,99.3622 72.3035,99.1955 75.5,100C 76.9153,103.73 78.082,107.563 79,111.5C 80.5,107.833 82,104.167 83.5,100.5C 85.1667,99.1667 86.8333,99.1667 88.5,100.5C 86.362,106.247 84.0287,111.914 81.5,117.5C 79.604,118.466 77.604,118.799 75.5,118.5C 74.6021,112.569 72.9355,106.902 70.5,101.5C 69.2638,100.754 67.9305,100.421 66.5,100.5 Z"/></g>
<g><path style="opacity:1" fill="#574a82" d="M 228.5,109.5 C 228.56,108.957 228.893,108.624 229.5,108.5C 230.221,110.686 230.887,112.853 231.5,115C 233.473,115.495 235.473,115.662 237.5,115.5C 235.372,116.629 233.039,116.796 230.5,116C 229.883,113.723 229.216,111.556 228.5,109.5 Z"/></g>
<g><path style="opacity:1" fill="#96c1e0" d="M 505.5,108.5 C 505.64,110.124 504.973,111.29 503.5,112C 504.624,112.249 505.624,112.749 506.5,113.5C 505.873,114.417 505.539,115.417 505.5,116.5C 498.287,117.078 491.287,116.412 484.5,114.5C 483.672,115.415 482.672,116.081 481.5,116.5C 478.26,116.024 474.927,116.024 471.5,116.5C 471.5,113.833 471.5,111.167 471.5,108.5C 482.74,108.712 494.073,108.712 505.5,108.5 Z"/></g>
<g><path style="opacity:1" fill="#609fd0" d="M 472.5,110.5 C 478.774,110.57 485.107,110.904 491.5,111.5C 490.345,112.95 488.845,113.95 487,114.5C 486.667,113.833 486.333,113.167 486,112.5C 484.108,113.13 482.441,114.13 481,115.5C 478.25,114.709 475.417,114.709 472.5,115.5C 472.5,113.833 472.5,112.167 472.5,110.5 Z"/></g>
<g><path style="opacity:0.986" fill="#ca0b03" d="M 200.5,88.5 C 199.972,89.7206 199.305,90.8873 198.5,92C 200.974,92.1129 202.974,93.1129 204.5,95C 201.5,95.3333 198.5,95.6667 195.5,96C 195.043,96.414 194.709,96.914 194.5,97.5C 198.459,98.3265 202.459,98.8265 206.5,99C 206.957,99.414 207.291,99.914 207.5,100.5C 202.5,101.167 197.5,101.833 192.5,102.5C 197.883,103.211 203.216,103.878 208.5,104.5C 208.5,104.833 208.5,105.167 208.5,105.5C 208.167,105.5 207.833,105.5 207.5,105.5C 204.956,105.104 202.789,105.771 201,107.5C 200.161,106.376 198.994,105.709 197.5,105.5C 193.754,106.757 191.587,109.424 191,113.5C 190.161,110.86 190.661,108.527 192.5,106.5C 191.743,103.962 190.41,103.295 188.5,104.5C 187.833,104.5 187.5,104.833 187.5,105.5C 184.856,105.16 182.523,105.827 180.5,107.5C 178.477,105.827 176.144,105.16 173.5,105.5C 172.833,105.5 172.5,105.167 172.5,104.5C 172.209,103.351 171.376,102.684 170,102.5C 167.36,102.473 166.027,103.807 166,106.5C 165.51,105.207 165.343,103.873 165.5,102.5C 163.302,102.12 161.635,102.787 160.5,104.5C 159.205,108.267 158.539,112.267 158.5,116.5C 159.791,116.737 160.791,116.404 161.5,115.5C 161.232,113.901 161.566,112.568 162.5,111.5C 162.215,113.288 162.548,114.955 163.5,116.5C 164.107,116.376 164.44,116.043 164.5,115.5C 165.558,114.4 166.392,113.066 167,111.5C 167.595,112.899 167.428,114.232 166.5,115.5C 167.808,116.626 169.142,116.626 170.5,115.5C 175.6,116.8 180.6,116.8 185.5,115.5C 185.833,115.5 186.167,115.5 186.5,115.5C 188.167,116.833 189.833,116.833 191.5,115.5C 194.124,116.605 197.124,116.605 200.5,115.5C 201.5,116.833 202.5,116.833 203.5,115.5C 204.167,113.5 204.833,111.5 205.5,109.5C 206.458,111.302 207.125,113.302 207.5,115.5C 203.238,117.128 198.571,118.128 193.5,118.5C 197.5,119.167 201.5,119.833 205.5,120.5C 205.291,121.086 204.957,121.586 204.5,122C 201.447,122.179 198.447,122.679 195.5,123.5C 197.149,124.988 199.149,125.988 201.5,126.5C 200.807,127.518 200.141,128.518 199.5,129.5C 184.558,139.048 171.391,137.048 160,123.5C 151.512,105.969 156.012,92.8018 173.5,84C 178.095,82.6071 182.761,82.2738 187.5,83C 191.943,84.6185 196.276,86.4519 200.5,88.5 Z"/></g>
<g><path style="opacity:1" fill="#762546" d="M 203.5,115.5 C 202.5,116.833 201.5,116.833 200.5,115.5C 199.322,114.001 197.655,113.001 195.5,112.5C 197.396,111.534 199.396,111.201 201.5,111.5C 201.157,113.483 201.824,114.817 203.5,115.5 Z"/></g>
<g><path style="opacity:1" fill="#4f366a" d="M 164.5,115.5 C 164.44,116.043 164.107,116.376 163.5,116.5C 162.548,114.955 162.215,113.288 162.5,111.5C 162.343,110.127 162.51,108.793 163,107.5C 163.183,110.365 163.683,113.031 164.5,115.5 Z"/></g>
<g><path style="opacity:1" fill="#7c6792" d="M 160.5,104.5 C 160.751,107.909 160.417,111.242 159.5,114.5C 159.957,115.298 160.624,115.631 161.5,115.5C 160.791,116.404 159.791,116.737 158.5,116.5C 158.539,112.267 159.205,108.267 160.5,104.5 Z"/></g>
<g><path style="opacity:1" fill="#625189" d="M 170.5,111.5 C 170.833,111.5 171.167,111.5 171.5,111.5C 171.33,112.822 171.663,113.989 172.5,115C 176.821,115.499 181.154,115.666 185.5,115.5C 180.6,116.8 175.6,116.8 170.5,115.5C 170.5,114.167 170.5,112.833 170.5,111.5 Z"/></g>
<g><path style="opacity:1" fill="#90566d" d="M 188.5,104.5 C 188.577,108.215 188.244,111.881 187.5,115.5C 188.833,115.5 190.167,115.5 191.5,115.5C 189.833,116.833 188.167,116.833 186.5,115.5C 186.896,112.956 186.229,110.789 184.5,109C 186.426,108.578 187.426,107.411 187.5,105.5C 187.5,104.833 187.833,104.5 188.5,104.5 Z"/></g>
<g><path style="opacity:1" fill="#d6c7d5" d="M 172.5,104.5 C 171.593,106.657 170.927,108.99 170.5,111.5C 170.5,112.833 170.5,114.167 170.5,115.5C 169.142,116.626 167.808,116.626 166.5,115.5C 167.428,114.232 167.595,112.899 167,111.5C 166.392,113.066 165.558,114.4 164.5,115.5C 163.683,113.031 163.183,110.365 163,107.5C 162.51,108.793 162.343,110.127 162.5,111.5C 161.566,112.568 161.232,113.901 161.5,115.5C 160.624,115.631 159.957,115.298 159.5,114.5C 160.417,111.242 160.751,107.909 160.5,104.5C 161.635,102.787 163.302,102.12 165.5,102.5C 165.343,103.873 165.51,105.207 166,106.5C 166.027,103.807 167.36,102.473 170,102.5C 171.376,102.684 172.209,103.351 172.5,104.5 Z"/></g>
<g><path style="opacity:1" fill="#a13a43" d="M 172.5,104.5 C 172.5,105.167 172.833,105.5 173.5,105.5C 173.389,106.117 173.056,106.617 172.5,107C 174.256,107.202 175.922,107.702 177.5,108.5C 175.245,109.194 173.245,110.194 171.5,111.5C 171.167,111.5 170.833,111.5 170.5,111.5C 170.927,108.99 171.593,106.657 172.5,104.5 Z"/></g>
<g><path style="opacity:1" fill="#e3d7df" d="M 173.5,105.5 C 176.144,105.16 178.477,105.827 180.5,107.5C 182.523,105.827 184.856,105.16 187.5,105.5C 187.426,107.411 186.426,108.578 184.5,109C 186.229,110.789 186.896,112.956 186.5,115.5C 186.167,115.5 185.833,115.5 185.5,115.5C 181.154,115.666 176.821,115.499 172.5,115C 171.663,113.989 171.33,112.822 171.5,111.5C 173.245,110.194 175.245,109.194 177.5,108.5C 175.922,107.702 174.256,107.202 172.5,107C 173.056,106.617 173.389,106.117 173.5,105.5 Z"/></g>
<g><path style="opacity:1" fill="#c72721" d="M 180.5,110.5 C 181.306,111.728 182.306,112.728 183.5,113.5C 182.167,113.5 180.833,113.5 179.5,113.5C 179.263,112.209 179.596,111.209 180.5,110.5 Z"/></g>
<g><path style="opacity:1" fill="#333167" d="M 183.5,113.5 C 182.306,112.728 181.306,111.728 180.5,110.5C 180.435,110.062 180.601,109.728 181,109.5C 181.689,110.357 182.522,111.023 183.5,111.5C 184.773,112.257 184.773,112.923 183.5,113.5 Z"/></g>
<g><path style="opacity:0.996" fill="#fa9705" d="M 199.5,129.5 C 200.141,128.518 200.807,127.518 201.5,126.5C 199.149,125.988 197.149,124.988 195.5,123.5C 198.447,122.679 201.447,122.179 204.5,122C 204.957,121.586 205.291,121.086 205.5,120.5C 201.5,119.833 197.5,119.167 193.5,118.5C 198.571,118.128 203.238,117.128 207.5,115.5C 209.379,116.341 211.379,116.675 213.5,116.5C 216.724,116.685 220.058,116.351 223.5,115.5C 224.5,116.833 225.5,116.833 226.5,115.5C 227.285,113.626 227.952,111.626 228.5,109.5C 229.216,111.556 229.883,113.723 230.5,116C 233.039,116.796 235.372,116.629 237.5,115.5C 238.863,111.706 239.863,107.706 240.5,103.5C 239.635,102.417 238.635,102.251 237.5,103C 235.585,104.855 233.418,106.355 231,107.5C 229.38,105.368 227.546,105.035 225.5,106.5C 225.167,106.5 224.833,106.5 224.5,106.5C 222.393,105.532 220.059,105.198 217.5,105.5C 217.167,105.5 216.833,105.5 216.5,105.5C 216.5,104.5 216.5,103.5 216.5,102.5C 213.579,102.283 210.913,102.949 208.5,104.5C 203.216,103.878 197.883,103.211 192.5,102.5C 197.5,101.833 202.5,101.167 207.5,100.5C 207.291,99.914 206.957,99.414 206.5,99C 202.459,98.8265 198.459,98.3265 194.5,97.5C 194.709,96.914 195.043,96.414 195.5,96C 198.5,95.6667 201.5,95.3333 204.5,95C 202.974,93.1129 200.974,92.1129 198.5,92C 199.305,90.8873 199.972,89.7206 200.5,88.5C 215.815,78.7478 228.982,81.0811 240,95.5C 247.234,113.166 242.734,125.999 226.5,134C 216.652,137.032 207.652,135.532 199.5,129.5 Z"/></g>
<g><path style="opacity:1" fill="#3a4d81" d="M 292.5,108.5 C 292.833,108.5 293.167,108.5 293.5,108.5C 293.174,114.826 296.174,117.159 302.5,115.5C 302.5,114.5 302.5,113.5 302.5,112.5C 304.099,112.768 305.432,112.434 306.5,111.5C 307.376,111.369 308.043,111.702 308.5,112.5C 302.005,114.387 302.338,115.387 309.5,115.5C 304.944,117.442 299.944,118.108 294.5,117.5C 293.89,115.566 292.89,113.899 291.5,112.5C 291.833,111.167 292.167,109.833 292.5,108.5 Z"/></g>
<g><path style="opacity:1" fill="#c51d39" d="M 401.5,86.5 C 403.833,86.5 406.167,86.5 408.5,86.5C 408.667,99.8375 408.5,113.171 408,126.5C 405.78,130.692 402.28,132.359 397.5,131.5C 399.119,126.732 398.786,122.232 396.5,118C 398.058,117.79 399.391,117.29 400.5,116.5C 402.167,116.5 403.833,116.5 405.5,116.5C 405.5,115.5 405.5,114.5 405.5,113.5C 401.111,115.464 397.278,114.797 394,111.5C 394.173,103.333 398.006,101.333 405.5,105.5C 406.731,104.349 406.731,103.183 405.5,102C 403.866,101.506 402.199,101.34 400.5,101.5C 400.707,97.1164 400.373,92.6164 399.5,88C 400.416,87.7216 401.082,87.2216 401.5,86.5 Z"/></g>
<g><path style="opacity:1" fill="#208d38" d="M 422.5,116.5 C 421.608,121.438 421.274,126.438 421.5,131.5C 417.833,131.5 414.167,131.5 410.5,131.5C 410.5,126.5 410.5,121.5 410.5,116.5C 414.5,116.5 418.5,116.5 422.5,116.5 Z"/></g>
<g><path style="opacity:1" fill="#8c2031" d="M 400.5,116.5 C 399.391,117.29 398.058,117.79 396.5,118C 398.786,122.232 399.119,126.732 397.5,131.5C 394.833,131.5 392.167,131.5 389.5,131.5C 389.334,125.824 389.501,120.157 390,114.5C 393.243,116.263 396.743,116.929 400.5,116.5 Z"/></g>
<g><path style="opacity:1" fill="#f7b508" d="M 57.5,126.5 C 84.1667,126.5 110.833,126.5 137.5,126.5C 137.5,128.833 137.5,131.167 137.5,133.5C 110.833,133.5 84.1667,133.5 57.5,133.5C 57.5,131.167 57.5,128.833 57.5,126.5 Z"/></g>
</svg>
