<?xml version="1.0" encoding="UTF-8"?>
<!DOCTYPE svg PUBLIC "-//W3C//DTD SVG 1.1//EN" "http://www.w3.org/Graphics/SVG/1.1/DTD/svg11.dtd">
<svg xmlns="http://www.w3.org/2000/svg" version="1.1" width="672px" height="261px" style="shape-rendering:geometricPrecision; text-rendering:geometricPrecision; image-rendering:optimizeQuality; fill-rule:evenodd; clip-rule:evenodd" xmlns:xlink="http://www.w3.org/1999/xlink">
<g><path style="opacity:1" fill="#fefefe" d="M -0.5,-0.5 C 223.5,-0.5 447.5,-0.5 671.5,-0.5C 671.5,86.5 671.5,173.5 671.5,260.5C 447.5,260.5 223.5,260.5 -0.5,260.5C -0.5,173.5 -0.5,86.5 -0.5,-0.5 Z"/></g>
<g><path style="opacity:1" fill="#012d8a" d="M 204.5,67.5 C 204.672,68.4916 204.338,69.1583 203.5,69.5C 203.439,66.9505 202.106,65.4505 199.5,65C 192.372,62.441 185.038,60.7743 177.5,60C 150.5,59.3333 123.5,59.3333 96.5,60C 94.0833,61.6626 92.25,63.8293 91,66.5C 86.5996,93.1368 82.4329,119.803 78.5,146.5C 78.5427,147.416 78.8761,148.083 79.5,148.5C 77.8085,152.246 76.6418,156.246 76,160.5C 72.3898,183.16 68.8898,205.827 65.5,228.5C 48.4967,228.667 31.4967,228.5 14.5,228C 13.0692,227.535 11.9025,226.701 11,225.5C 10.392,219.126 10.7253,212.793 12,206.5C 22.1298,143.518 32.1298,80.518 42,17.5C 42.0487,10.5573 45.2153,5.72393 51.5,3C 81.5,2.33333 111.5,2.33333 141.5,3C 158.556,3.27088 174.222,7.93754 188.5,17C 203.539,30.6221 208.872,47.4554 204.5,67.5 Z"/></g>
<g><path style="opacity:1" fill="#001f6b" d="M 203.5,69.5 C 196.888,113.945 171.221,138.445 126.5,143C 112.833,143.333 99.1667,143.667 85.5,144C 82.8936,144.792 80.8936,146.292 79.5,148.5C 78.8761,148.083 78.5427,147.416 78.5,146.5C 82.4329,119.803 86.5996,93.1368 91,66.5C 92.25,63.8293 94.0833,61.6626 96.5,60C 123.5,59.3333 150.5,59.3333 177.5,60C 185.038,60.7743 192.372,62.441 199.5,65C 202.106,65.4505 203.439,66.9505 203.5,69.5 Z"/></g>
<g><path style="opacity:1" fill="#039ae0" d="M 204.5,67.5 C 219.134,75.5907 226.134,88.0907 225.5,105C 225.87,131.254 216.536,153.254 197.5,171C 188.448,177.464 178.448,181.797 167.5,184C 155.471,185.542 143.471,186.876 131.5,188C 129.951,189.214 128.785,190.714 128,192.5C 124.944,212.224 121.611,231.891 118,251.5C 116.773,253.726 114.939,255.226 112.5,256C 96.4556,256.818 80.4556,256.651 64.5,255.5C 62.9873,253.465 62.3207,251.131 62.5,248.5C 63.2868,241.781 64.2868,235.115 65.5,228.5C 68.8898,205.827 72.3898,183.16 76,160.5C 76.6418,156.246 77.8085,152.246 79.5,148.5C 80.8936,146.292 82.8936,144.792 85.5,144C 99.1667,143.667 112.833,143.333 126.5,143C 171.221,138.445 196.888,113.945 203.5,69.5C 204.338,69.1583 204.672,68.4916 204.5,67.5 Z"/></g>
<g><path style="opacity:1" fill="#062e8b" d="M 268.5,83.5 C 281.504,83.3334 294.504,83.5001 307.5,84C 322.395,86.2149 328.895,94.7149 327,109.5C 325.61,125.552 317.11,135.386 301.5,139C 294.061,139.07 286.728,139.737 279.5,141C 277.169,148.974 275.669,157.14 275,165.5C 274.167,166.333 273.333,167.167 272.5,168C 266.833,168.667 261.167,168.667 255.5,168C 254.643,167.311 253.977,166.478 253.5,165.5C 257.562,141.566 261.396,117.566 265,93.5C 265.29,89.7921 266.457,86.4587 268.5,83.5 Z"/></g>
<g><path style="opacity:1" fill="#0f9ce1" d="M 485.5,83.5 C 499.504,83.3334 513.504,83.5001 527.5,84C 541.772,87.6961 547.605,96.8627 545,111.5C 542.798,126.033 534.632,135.199 520.5,139C 513.5,139.333 506.5,139.667 499.5,140C 498.584,140.374 497.75,140.874 497,141.5C 495.284,150.413 493.451,159.247 491.5,168C 485.167,168.667 478.833,168.667 472.5,168C 471.696,163.557 471.863,159.057 473,154.5C 476.438,130.632 480.605,106.965 485.5,83.5 Z"/></g>
<g><path style="opacity:1" fill="#119ce1" d="M 628.5,83.5 C 634.176,83.3339 639.843,83.5006 645.5,84C 646.022,84.5613 646.355,85.228 646.5,86C 642.375,112.167 638.208,138.333 634,164.5C 633.535,165.931 632.701,167.097 631.5,168C 626.5,168.667 621.5,168.667 616.5,168C 615.422,167.326 614.755,166.326 614.5,165C 618.829,138.526 622.996,112.026 627,85.5C 627.717,84.9558 628.217,84.2891 628.5,83.5 Z"/></g>
<g><path style="opacity:1" fill="#f8f9fc" d="M 292.5,122.5 C 289.167,122.5 285.833,122.5 282.5,122.5C 282.5,121.5 282.5,120.5 282.5,119.5C 282.877,113.446 283.71,107.446 285,101.5C 289.413,100.368 293.913,100.201 298.5,101C 301.057,101.685 302.891,103.185 304,105.5C 306.091,115.346 302.257,121.013 292.5,122.5 Z"/></g>
<g><path style="opacity:1" fill="#fafdfe" d="M 503.5,100.5 C 508.599,100.175 513.599,100.675 518.5,102C 522.277,104.955 523.443,108.788 522,113.5C 520.997,116.699 519.163,119.199 516.5,121C 511.264,122.339 505.93,122.839 500.5,122.5C 500.471,114.99 501.471,107.657 503.5,100.5 Z"/></g>
<g><path style="opacity:1" fill="#082f8b" d="M 348.5,110.5 C 355.692,109.945 362.692,110.778 369.5,113C 371.57,113.948 373.07,115.448 374,117.5C 374.163,115.324 374.996,113.491 376.5,112C 382.416,111.193 388.25,111.359 394,112.5C 391.918,129.485 389.585,146.485 387,163.5C 386.727,165.329 385.893,166.829 384.5,168C 379.167,168.667 373.833,168.667 368.5,168C 367.736,165.931 367.236,163.764 367,161.5C 356.796,170.185 345.629,171.685 333.5,166C 326.138,160.602 322.805,153.269 323.5,144C 324.41,127.261 332.743,116.095 348.5,110.5 Z"/></g>
<g><path style="opacity:1" fill="#129de1" d="M 566.5,110.5 C 573.692,109.945 580.692,110.778 587.5,113C 589,114.5 590.5,116 592,117.5C 592.251,115.567 592.751,113.734 593.5,112C 599.749,111.191 605.916,111.358 612,112.5C 610.327,129.212 607.994,145.879 605,162.5C 604.837,164.676 604.004,166.509 602.5,168C 596.804,168.83 591.137,168.663 585.5,167.5C 584.846,165.885 584.346,164.218 584,162.5C 572.955,170.683 561.455,171.517 549.5,165C 539.723,154.523 537.889,142.69 544,129.5C 549.242,120.42 556.742,114.086 566.5,110.5 Z"/></g>
<g><path style="opacity:1" fill="#062e8b" d="M 403.5,111.5 C 409.176,111.334 414.843,111.501 420.5,112C 421.333,112.833 422.167,113.667 423,114.5C 425.698,123.969 428.698,133.302 432,142.5C 439.044,132.246 446.21,122.079 453.5,112C 459.5,111.333 465.5,111.333 471.5,112C 472.022,112.561 472.355,113.228 472.5,114C 456.239,138.597 439.572,162.931 422.5,187C 416.167,187.667 409.833,187.667 403.5,187C 402.978,186.439 402.645,185.772 402.5,185C 407.833,177.333 413.167,169.667 418.5,162C 413.326,147.145 408.16,132.311 403,117.5C 402.322,115.402 402.489,113.402 403.5,111.5 Z"/></g>
<g><path style="opacity:1" fill="#6e86bc" d="M 282.5,119.5 C 282.5,120.5 282.5,121.5 282.5,122.5C 285.833,122.5 289.167,122.5 292.5,122.5C 289.038,123.482 285.371,123.815 281.5,123.5C 281.232,121.901 281.566,120.568 282.5,119.5 Z"/></g>
<g><path style="opacity:1" fill="#f9f9fc" d="M 355.5,125.5 C 371.641,126.441 375.807,134.108 368,148.5C 362.689,153.146 356.523,154.646 349.5,153C 341.782,147.401 340.616,140.568 346,132.5C 348.825,129.524 351.992,127.191 355.5,125.5 Z"/></g>
<g><path style="opacity:1" fill="#fbfdfe" d="M 571.5,126.5 C 587.531,124.92 592.697,131.587 587,146.5C 582.04,153.027 575.54,155.194 567.5,153C 559.653,147.424 558.487,140.59 564,132.5C 566.114,129.879 568.614,127.879 571.5,126.5 Z"/></g>
</svg>
